<svg xmlns="http://www.w3.org/2000/svg" xmlns:xlink="http://www.w3.org/1999/xlink" contentStyleType="text/css" height="818px" preserveAspectRatio="none" style="width:954px;height:818px;background:#FFFFFF;" version="1.1" viewBox="0 0 954 818" width="954px" zoomAndPan="magnify"><defs/><g><rect fill="none" height="479.1094" style="stroke:#000000;stroke-width:1.5;" width="631.2129" x="11" y="11"/><path d="M247.6729,11 L247.6729,20.2969 L237.6729,30.2969 L11,30.2969 " fill="none" style="stroke:#000000;stroke-width:1.5;"/><text fill="#000000" font-family="sans-serif" font-size="14" font-weight="bold" lengthAdjust="spacing" textLength="65.3994" x="14" y="24.9951">function</text><text fill="#000000" font-family="sans-serif" font-size="14" lengthAdjust="spacing" textLength="156.8232" x="83.8496" y="24.9951">__getCheckedColRows</text><path d="M307.6973,211.3711 L307.6973,307.0352 L622.2129,307.0352 L622.2129,221.3711 L612.2129,211.3711 L307.6973,211.3711 " fill="#FEFFDD" style="stroke:#181818;stroke-width:0.5;"/><path d="M612.2129,211.3711 L612.2129,221.3711 L622.2129,221.3711 L612.2129,211.3711 " fill="#FEFFDD" style="stroke:#181818;stroke-width:0.5;"/><text fill="#000000" font-family="sans-serif" font-size="13" lengthAdjust="spacing" textLength="36.1118" x="313.6973" y="228.438">NOTE</text><text fill="#000000" font-family="sans-serif" font-size="13" font-weight="bold" lengthAdjust="spacing" textLength="161.04" x="353.9414" y="228.438">__getCheckedColRows</text><line style="stroke:#181818;stroke-width:1.0;" x1="307.6973" x2="622.2129" y1="236.5039" y2="236.5039"/><line style="stroke:#181818;stroke-width:1.0;" x1="307.6973" x2="622.2129" y1="238.5039" y2="238.5039"/><text fill="#000000" font-family="sans-serif" font-size="13" lengthAdjust="spacing" textLength="211.3262" x="313.6973" y="253.5708">This function helps to determine</text><text fill="#000000" font-family="sans-serif" font-size="13" lengthAdjust="spacing" textLength="291.7129" x="313.6973" y="268.7036">which rows and columns have been selected</text><text fill="#000000" font-family="sans-serif" font-size="13" lengthAdjust="spacing" textLength="293.5156" x="313.6973" y="283.8364">by the user, storing that information for later</text><text fill="#000000" font-family="sans-serif" font-size="13" lengthAdjust="spacing" textLength="168.0288" x="313.6973" y="298.9692">use in the editing process</text><rect fill="#E9FFFC" height="33.9688" rx="12.5" ry="12.5" style="stroke:#181818;stroke-width:0.5;" width="225.1367" x="57.4888" y="40.2969"/><text fill="#000000" font-family="sans-serif" font-size="12" lengthAdjust="spacing" textLength="205.1367" x="67.4888" y="61.4355">Select Radio and Checkbox Inputs</text><rect fill="#E9FFFC" height="33.9688" rx="12.5" ry="12.5" style="stroke:#181818;stroke-width:0.5;" width="167.4277" x="86.3433" y="94.2656"/><text fill="#000000" font-family="sans-serif" font-size="12" lengthAdjust="spacing" textLength="147.4277" x="96.3433" y="115.4043">Retrieve Checked Inputs</text><polygon fill="#F1F1F1" points="124.4888,148.2344,215.6255,148.2344,227.6255,160.2344,215.6255,172.2344,124.4888,172.2344,112.4888,160.2344,124.4888,148.2344" style="stroke:#181818;stroke-width:0.5;"/><text fill="#000000" font-family="sans-serif" font-size="11" lengthAdjust="spacing" textLength="91.1367" x="124.4888" y="164.0425">Checked Inputs?</text><text fill="#000000" font-family="sans-serif" font-size="11" lengthAdjust="spacing" textLength="19.0083" x="93.4805" y="157.6401">yes</text><text fill="#000000" font-family="sans-serif" font-size="11" lengthAdjust="spacing" textLength="13.7017" x="227.6255" y="157.6401">no</text><rect fill="#E9FFFC" height="33.9688" rx="12.5" ry="12.5" style="stroke:#181818;stroke-width:0.5;" width="151.7656" x="23" y="182.2344"/><text fill="#000000" font-family="sans-serif" font-size="12" lengthAdjust="spacing" textLength="131.7656" x="33" y="203.373">Store Selected Values</text><rect fill="#90EE90" height="33.9688" rx="12.5" ry="12.5" style="stroke:#181818;stroke-width:0.5;" width="127.0332" x="35.3662" y="251.2031"/><text fill="#000000" font-family="sans-serif" font-size="12" lengthAdjust="spacing" textLength="107.0332" x="45.3662" y="272.3418">Update row count</text><rect fill="#E9FFFC" height="33.9688" rx="12.5" ry="12.5" style="stroke:#181818;stroke-width:0.5;" width="146.3105" x="25.7275" y="320.1719"/><text fill="#000000" font-family="sans-serif" font-size="12" lengthAdjust="spacing" textLength="126.3105" x="35.7275" y="341.3105">Collect Editable Cells</text><rect fill="#F1F1F1" height="33.9688" rx="12.5" ry="12.5" style="stroke:#181818;stroke-width:0.5;" width="89.0117" x="54.377" y="374.1406"/><text fill="#000000" font-family="sans-serif" font-size="12" lengthAdjust="spacing" textLength="69.0117" x="64.377" y="395.2793">Return true</text><rect fill="#F1F1F1" height="33.9688" rx="12.5" ry="12.5" style="stroke:#181818;stroke-width:0.5;" width="92.9316" x="194.7656" y="182.2344"/><text fill="#000000" font-family="sans-serif" font-size="12" lengthAdjust="spacing" textLength="72.9316" x="204.7656" y="203.373">Return false</text><polygon fill="#F1F1F1" points="170.0571,414.1094,182.0571,426.1094,170.0571,438.1094,158.0571,426.1094,170.0571,414.1094" style="stroke:#181818;stroke-width:0.5;"/><ellipse cx="170.0571" cy="468.1094" fill="none" rx="10" ry="10" style="stroke:#222222;stroke-width:1.5;"/><line style="stroke:#222222;stroke-width:2.5;" x1="163.8699" x2="176.2443" y1="461.9222" y2="474.2966"/><line style="stroke:#222222;stroke-width:2.5;" x1="176.2443" x2="163.8699" y1="461.9222" y2="474.2966"/><rect fill="none" height="307.1719" style="stroke:#000000;stroke-width:1.5;" width="880.0605" x="63.895" y="500.1094"/><path d="M228.0864,500.1094 L228.0864,509.4063 L218.0864,519.4063 L63.895,519.4063 " fill="none" style="stroke:#000000;stroke-width:1.5;"/><text fill="#000000" font-family="sans-serif" font-size="14" font-weight="bold" lengthAdjust="spacing" textLength="65.3994" x="66.895" y="514.1045">function</text><text fill="#000000" font-family="sans-serif" font-size="14" lengthAdjust="spacing" textLength="84.3418" x="136.7446" y="514.1045">editBtnFunc</text><path d="M638.2012,622.0781 L638.2012,702.6094 L923.9556,702.6094 L923.9556,632.0781 L913.9556,622.0781 L638.2012,622.0781 " fill="#FEFFDD" style="stroke:#181818;stroke-width:0.5;"/><path d="M913.9556,622.0781 L913.9556,632.0781 L923.9556,632.0781 L913.9556,622.0781 " fill="#FEFFDD" style="stroke:#181818;stroke-width:0.5;"/><text fill="#000000" font-family="sans-serif" font-size="13" lengthAdjust="spacing" textLength="36.1118" x="644.2012" y="639.145">NOTE</text><text fill="#000000" font-family="sans-serif" font-size="13" font-weight="bold" lengthAdjust="spacing" textLength="89.2671" x="684.4453" y="639.145">editBtnFunc</text><line style="stroke:#181818;stroke-width:1.0;" x1="638.2012" x2="923.9556" y1="647.2109" y2="647.2109"/><line style="stroke:#181818;stroke-width:1.0;" x1="638.2012" x2="923.9556" y1="649.2109" y2="649.2109"/><text fill="#000000" font-family="sans-serif" font-size="13" lengthAdjust="spacing" textLength="264.7544" x="644.2012" y="664.2778">This function is an event of "Edit" button</text><text fill="#000000" font-family="sans-serif" font-size="13" lengthAdjust="spacing" textLength="263.6436" x="644.2012" y="679.4106">It roles is to show the input fields for the</text><text fill="#000000" font-family="sans-serif" font-size="13" lengthAdjust="spacing" textLength="173.2148" x="644.2012" y="694.5435">cells the user has selected</text><ellipse cx="170.0571" cy="539.4063" fill="#222222" rx="10" ry="10" style="stroke:#222222;stroke-width:1.0;"/><rect fill="#F1F1F1" height="33.9688" rx="12.5" ry="12.5" style="stroke:#181818;stroke-width:0.5;" width="93.1777" x="123.4683" y="569.4063"/><text fill="#000000" font-family="sans-serif" font-size="12" lengthAdjust="spacing" textLength="73.1777" x="133.4683" y="590.5449">Initialization</text><path d="M280.9487,642.793 L280.9487,651.3594 L260.9487,655.3594 L280.9487,659.3594 L280.9487,667.9258 A0,0 0 0 0 280.9487,667.9258 L460.894,667.9258 A0,0 0 0 0 460.894,667.9258 L460.894,652.793 L450.894,642.793 L280.9487,642.793 A0,0 0 0 0 280.9487,642.793 " fill="#FEFFDD" style="stroke:#181818;stroke-width:0.5;"/><path d="M450.894,642.793 L450.894,652.793 L460.894,652.793 L450.894,642.793 " fill="#FEFFDD" style="stroke:#181818;stroke-width:0.5;"/><text fill="#000000" font-family="sans-serif" font-size="13" lengthAdjust="spacing" textLength="158.9453" x="286.9487" y="659.8599">If no cells retrieved, quit</text><rect fill="#90EE90" height="33.9688" rx="12.5" ry="12.5" style="stroke:#181818;stroke-width:0.5;" width="181.7832" x="79.1655" y="638.375"/><text fill="#000000" font-family="sans-serif" font-size="12" lengthAdjust="spacing" textLength="161.7832" x="89.1655" y="659.5137">Run __getCheckedColRows</text><path d="M286.2192,711.1797 L286.2192,727.3125 L266.2192,731.3125 L286.2192,735.3125 L286.2192,751.4453 A0,0 0 0 0 286.2192,751.4453 L628.2012,751.4453 A0,0 0 0 0 628.2012,751.4453 L628.2012,721.1797 L618.2012,711.1797 L286.2192,711.1797 A0,0 0 0 0 286.2192,711.1797 " fill="#FEFFDD" style="stroke:#181818;stroke-width:0.5;"/><path d="M618.2012,711.1797 L618.2012,721.1797 L628.2012,721.1797 L618.2012,711.1797 " fill="#FEFFDD" style="stroke:#181818;stroke-width:0.5;"/><text fill="#000000" font-family="sans-serif" font-size="13" lengthAdjust="spacing" textLength="317.6558" x="292.2192" y="728.2466">Compare HTMLElement id to col and rows ref ids</text><text fill="#000000" font-family="sans-serif" font-size="13" lengthAdjust="spacing" textLength="320.9819" x="292.2192" y="743.3794">as collected when running __getCheckedColRows</text><rect fill="#87CEEB" height="47.9375" rx="12.5" ry="12.5" style="stroke:#181818;stroke-width:0.5;" width="192.3242" x="73.895" y="707.3438"/><text fill="#000000" font-family="sans-serif" font-size="12" lengthAdjust="spacing" textLength="132.2109" x="83.895" y="728.4824">Loop, find and display</text><text fill="#000000" font-family="sans-serif" font-size="12" lengthAdjust="spacing" textLength="172.3242" x="83.895" y="742.4512">input fields for selected cells</text><ellipse cx="170.0571" cy="785.2813" fill="none" rx="10" ry="10" style="stroke:#222222;stroke-width:1.5;"/><line style="stroke:#222222;stroke-width:2.5;" x1="163.8699" x2="176.2443" y1="779.0941" y2="791.4684"/><line style="stroke:#222222;stroke-width:2.5;" x1="176.2443" x2="163.8699" y1="779.0941" y2="791.4684"/><line style="stroke:#181818;stroke-width:1.0;" x1="170.0571" x2="170.0571" y1="74.2656" y2="94.2656"/><polygon fill="#181818" points="166.0571,84.2656,170.0571,94.2656,174.0571,84.2656,170.0571,88.2656" style="stroke:#181818;stroke-width:1.0;"/><line style="stroke:#181818;stroke-width:1.0;" x1="98.8828" x2="98.8828" y1="216.2031" y2="251.2031"/><polygon fill="#181818" points="94.8828,241.2031,98.8828,251.2031,102.8828,241.2031,98.8828,245.2031" style="stroke:#181818;stroke-width:1.0;"/><line style="stroke:#181818;stroke-width:1.0;" x1="98.8828" x2="98.8828" y1="285.1719" y2="320.1719"/><polygon fill="#181818" points="94.8828,310.1719,98.8828,320.1719,102.8828,310.1719,98.8828,314.1719" style="stroke:#181818;stroke-width:1.0;"/><line style="stroke:#181818;stroke-width:1.0;" x1="98.8828" x2="98.8828" y1="354.1406" y2="374.1406"/><polygon fill="#181818" points="94.8828,364.1406,98.8828,374.1406,102.8828,364.1406,98.8828,368.1406" style="stroke:#181818;stroke-width:1.0;"/><line style="stroke:#181818;stroke-width:1.0;" x1="112.4888" x2="98.8828" y1="160.2344" y2="160.2344"/><line style="stroke:#181818;stroke-width:1.0;" x1="98.8828" x2="98.8828" y1="160.2344" y2="182.2344"/><polygon fill="#181818" points="94.8828,172.2344,98.8828,182.2344,102.8828,172.2344,98.8828,176.2344" style="stroke:#181818;stroke-width:1.0;"/><line style="stroke:#181818;stroke-width:1.0;" x1="227.6255" x2="241.2314" y1="160.2344" y2="160.2344"/><line style="stroke:#181818;stroke-width:1.0;" x1="241.2314" x2="241.2314" y1="160.2344" y2="182.2344"/><polygon fill="#181818" points="237.2314,172.2344,241.2314,182.2344,245.2314,172.2344,241.2314,176.2344" style="stroke:#181818;stroke-width:1.0;"/><line style="stroke:#181818;stroke-width:1.0;" x1="98.8828" x2="98.8828" y1="408.1094" y2="426.1094"/><line style="stroke:#181818;stroke-width:1.0;" x1="98.8828" x2="158.0571" y1="426.1094" y2="426.1094"/><polygon fill="#181818" points="148.0571,422.1094,158.0571,426.1094,148.0571,430.1094,152.0571,426.1094" style="stroke:#181818;stroke-width:1.0;"/><line style="stroke:#181818;stroke-width:1.0;" x1="241.2314" x2="241.2314" y1="216.2031" y2="426.1094"/><line style="stroke:#181818;stroke-width:1.0;" x1="241.2314" x2="182.0571" y1="426.1094" y2="426.1094"/><polygon fill="#181818" points="192.0571,422.1094,182.0571,426.1094,192.0571,430.1094,188.0571,426.1094" style="stroke:#181818;stroke-width:1.0;"/><line style="stroke:#181818;stroke-width:1.0;" x1="170.0571" x2="170.0571" y1="128.2344" y2="148.2344"/><polygon fill="#181818" points="166.0571,138.2344,170.0571,148.2344,174.0571,138.2344,170.0571,142.2344" style="stroke:#181818;stroke-width:1.0;"/><line style="stroke:#181818;stroke-width:1.0;" x1="170.0571" x2="170.0571" y1="438.1094" y2="458.1094"/><polygon fill="#181818" points="166.0571,448.1094,170.0571,458.1094,174.0571,448.1094,170.0571,452.1094" style="stroke:#181818;stroke-width:1.0;"/><line style="stroke:#181818;stroke-width:1.0;" x1="170.0571" x2="170.0571" y1="549.4063" y2="569.4063"/><polygon fill="#181818" points="166.0571,559.4063,170.0571,569.4063,174.0571,559.4063,170.0571,563.4063" style="stroke:#181818;stroke-width:1.0;"/><line style="stroke:#181818;stroke-width:1.0;" x1="170.0571" x2="170.0571" y1="603.375" y2="638.375"/><polygon fill="#181818" points="166.0571,628.375,170.0571,638.375,174.0571,628.375,170.0571,632.375" style="stroke:#181818;stroke-width:1.0;"/><line style="stroke:#181818;stroke-width:1.0;" x1="170.0571" x2="170.0571" y1="672.3438" y2="707.3438"/><polygon fill="#181818" points="166.0571,697.3438,170.0571,707.3438,174.0571,697.3438,170.0571,701.3438" style="stroke:#181818;stroke-width:1.0;"/><line style="stroke:#181818;stroke-width:1.0;" x1="170.0571" x2="170.0571" y1="755.2813" y2="775.2813"/><polygon fill="#181818" points="166.0571,765.2813,170.0571,775.2813,174.0571,765.2813,170.0571,769.2813" style="stroke:#181818;stroke-width:1.0;"/><!--SRC=[TLFDZjCm4BxxAKRbqaPz0LeX9AeYAYqWTGlNbHEF6sjTEzXZIa6yEpDkjp_QaaCKZSSptry6dSYHYm56JMDBwEIxQU3fQOkqwB5xHhE8VXttUVH7XKW8oMrxKb- -RfRGD7VwcaQzuqTjUfVXPIJqw8SC5C4WOTgvW6hVkww7n5T01mDTz6KNClJw9qAB622ZnuxGgFO0r2EKZ6aAcM9oOSiLJU22ZMcdwmh-0gzvkk96Fgbtq30zxXvIx31dXRn9QAWt-DPQsyqUwn9OQ-DYnL7PjF4NhC9GAC_FdMkav931dVYU6vmTtvRUJsHtWF41y-IoYO4ZF9v8mNVj2yfuBu9k4pEUVHkC5edZdkKeWIxBMToASybyTEiP17hFjmLLISmr5PmhzCny7EBaNBUQItEXxQoyrLyr_CTpaUe3XOzSkUlrrVbzZvqO2QnG88WMHe9r16qXYa6jY6bvpDB5CSWzSnI3d2W6rg4tkLh8HTK9kRFd78by2SFPmKnCHCrMWSbextxN5DpgkIxXNfJdr-nMbiV1SMCwMMocyACukafBVZwqxDVi8SPXod3vGC9YN1wyFe1wHUC5xt7opSP5tB4729ysdn-M7dUYbpEY2ly3TMpzAH9QBcV5vBkZ-pnjBxbA9GG9zHrg5yZLx7y0]--></g></svg>