<svg xmlns="http://www.w3.org/2000/svg" xmlns:xlink="http://www.w3.org/1999/xlink" contentStyleType="text/css" height="2647px" preserveAspectRatio="none" style="width:1018px;height:2647px;background:#FFFFFF;" version="1.1" viewBox="0 0 1018 2647" width="1018px" zoomAndPan="magnify"><defs/><g><ellipse cx="257.1465" cy="20" fill="#222222" rx="10" ry="10" style="stroke:#222222;stroke-width:1.0;"/><rect fill="#E9FFFC" height="33.9688" rx="12.5" ry="12.5" style="stroke:#181818;stroke-width:0.5;" width="137.3867" x="188.4531" y="50"/><text fill="#000000" font-family="sans-serif" font-size="12" lengthAdjust="spacing" textLength="117.3867" x="198.4531" y="71.1387">Get Total Allotment</text><rect fill="#90EE90" height="33.9688" rx="12.5" ry="12.5" style="stroke:#181818;stroke-width:0.5;" width="66.4648" x="223.9141" y="103.9688"/><text fill="#000000" font-family="sans-serif" font-size="12" lengthAdjust="spacing" textLength="20.1445" x="233.9141" y="125.1074">run</text><text fill="#000000" font-family="sans-serif" font-size="12" font-weight="bold" lengthAdjust="spacing" textLength="22.5059" x="257.873" y="125.1074">init</text><ellipse cx="257.1465" cy="167.9375" fill="none" rx="10" ry="10" style="stroke:#222222;stroke-width:1.5;"/><line style="stroke:#222222;stroke-width:2.5;" x1="250.9593" x2="263.3337" y1="161.7503" y2="174.1247"/><line style="stroke:#222222;stroke-width:2.5;" x1="263.3337" x2="250.9593" y1="161.7503" y2="174.1247"/><rect fill="none" height="375.2031" style="stroke:#000000;stroke-width:1.5;" width="594.7407" x="115.1924" y="187.9375"/><path d="M217.1836,187.9375 L217.1836,197.2344 L207.1836,207.2344 L115.1924,207.2344 " fill="none" style="stroke:#000000;stroke-width:1.5;"/><text fill="#000000" font-family="sans-serif" font-size="14" font-weight="bold" lengthAdjust="spacing" textLength="65.3994" x="118.1924" y="201.9326">function</text><text fill="#000000" font-family="sans-serif" font-size="14" lengthAdjust="spacing" textLength="22.1416" x="188.042" y="201.9326">init</text><path d="M399.1006,311.2031 L399.1006,442.2656 L689.9331,442.2656 L689.9331,321.2031 L679.9331,311.2031 L399.1006,311.2031 " fill="#FEFFDD" style="stroke:#181818;stroke-width:0.5;"/><path d="M679.9331,311.2031 L679.9331,321.2031 L689.9331,321.2031 L679.9331,311.2031 " fill="#FEFFDD" style="stroke:#181818;stroke-width:0.5;"/><text fill="#000000" font-family="sans-serif" font-size="13" lengthAdjust="spacing" textLength="68.4468" x="417.4976" y="328.27">NOTE func</text><text fill="#000000" font-family="sans-serif" font-size="13" font-weight="bold" lengthAdjust="spacing" textLength="24.3813" x="490.0767" y="328.27">init</text><text fill="#000000" font-family="sans-serif" font-size="13" lengthAdjust="spacing" textLength="43.5703" x="417.4976" y="343.4028">====</text><text fill="#000000" font-family="sans-serif" font-size="13" lengthAdjust="spacing" textLength="211.9229" x="417.4976" y="358.5356">This function runs when loading.</text><text fill="#000000" font-family="sans-serif" font-size="13" lengthAdjust="spacing" textLength="4.1323" x="405.1006" y="373.6685">&#160;</text><text fill="#000000" font-family="sans-serif" font-size="13" lengthAdjust="spacing" textLength="205.0229" x="405.1006" y="388.8013">The function set all output cells</text><text fill="#000000" font-family="sans-serif" font-size="13" lengthAdjust="spacing" textLength="186.3735" x="405.1006" y="403.9341">into a default even partition.</text><text fill="#000000" font-family="sans-serif" font-size="13" lengthAdjust="spacing" textLength="252.2051" x="405.1006" y="419.0669">For a more formal implementation this</text><text fill="#000000" font-family="sans-serif" font-size="13" lengthAdjust="spacing" textLength="269.8325" x="405.1006" y="434.1997">function should read an external dataset.</text><ellipse cx="257.1465" cy="227.2344" fill="#222222" rx="10" ry="10" style="stroke:#222222;stroke-width:1.0;"/><rect fill="#ADD8E6" height="33.9688" rx="12.5" ry="12.5" style="stroke:#181818;stroke-width:0.5;" width="222.3184" x="145.9873" y="257.2344"/><text fill="#000000" font-family="sans-serif" font-size="12" lengthAdjust="spacing" textLength="202.3184" x="155.9873" y="278.373">Calculate Even Contribution: Split</text><rect fill="#ADD8E6" height="33.9688" rx="12.5" ry="12.5" style="stroke:#181818;stroke-width:0.5;" width="263.9082" x="125.1924" y="311.2969"/><text fill="#000000" font-family="sans-serif" font-size="12" lengthAdjust="spacing" textLength="243.9082" x="135.1924" y="332.4355">Calculate Even Contribution: Percentage</text><rect fill="#FCE9FF" height="47.9375" rx="12.5" ry="12.5" style="stroke:#181818;stroke-width:0.5;" width="214.4961" x="149.8984" y="380.2656"/><text fill="#000000" font-family="sans-serif" font-size="12" lengthAdjust="spacing" textLength="194.4961" x="159.8984" y="401.4043">Find all output elements (spans)</text><text fill="#000000" font-family="sans-serif" font-size="12" lengthAdjust="spacing" textLength="132.5215" x="163.7129" y="415.373">and there row/column</text><rect fill="#90EE90" height="47.9375" rx="12.5" ry="12.5" style="stroke:#181818;stroke-width:0.5;" width="252.6875" x="130.8027" y="463.2031"/><text fill="#000000" font-family="sans-serif" font-size="12" lengthAdjust="spacing" textLength="232.6875" x="140.8027" y="484.3418">Update Contributions and Percentages</text><text fill="#000000" font-family="sans-serif" font-size="12" lengthAdjust="spacing" textLength="115.002" x="144.6172" y="498.3105">by row and column</text><ellipse cx="257.1465" cy="541.1406" fill="none" rx="10" ry="10" style="stroke:#222222;stroke-width:1.5;"/><line style="stroke:#222222;stroke-width:2.5;" x1="250.9593" x2="263.3337" y1="534.9534" y2="547.3278"/><line style="stroke:#222222;stroke-width:2.5;" x1="263.3337" x2="250.9593" y1="534.9534" y2="547.3278"/><rect fill="none" height="600.3511" style="stroke:#000000;stroke-width:1.5;" width="766.1116" x="79.6848" y="573.1406"/><path d="M442.5969,573.1406 L442.5969,582.4375 L432.5969,592.4375 L79.6848,592.4375 " fill="none" style="stroke:#000000;stroke-width:1.5;"/><text fill="#000000" font-family="sans-serif" font-size="14" font-weight="bold" lengthAdjust="spacing" textLength="65.3994" x="82.6848" y="587.1357">function</text><text fill="#000000" font-family="sans-serif" font-size="14" lengthAdjust="spacing" textLength="168.1846" x="152.5344" y="587.1357">updateCol - responds to</text><text fill="#000000" font-family="sans-serif" font-size="14" lengthAdjust="spacing" text-decoration="underline" textLength="59.8008" x="325.1692" y="587.1357">m0fixcol</text><text fill="#000000" font-family="sans-serif" font-size="14" lengthAdjust="spacing" textLength="46.1768" x="389.4202" y="587.1357">button</text><path d="M561.1733,826.2109 L561.1733,927.0078 L825.7964,927.0078 L825.7964,836.2109 L815.7964,826.2109 L561.1733,826.2109 " fill="#FEFFDD" style="stroke:#181818;stroke-width:0.5;"/><path d="M815.7964,826.2109 L815.7964,836.2109 L825.7964,836.2109 L815.7964,826.2109 " fill="#FEFFDD" style="stroke:#181818;stroke-width:0.5;"/><text fill="#000000" font-family="sans-serif" font-size="13" lengthAdjust="spacing" textLength="139.0264" x="579.5703" y="843.2778">NOTE func updateCol</text><text fill="#000000" font-family="sans-serif" font-size="13" lengthAdjust="spacing" textLength="43.5703" x="579.5703" y="858.4106">====</text><text fill="#000000" font-family="sans-serif" font-size="13" lengthAdjust="spacing" textLength="123.8872" x="579.5703" y="873.5435">responds to EVENT</text><text fill="#000000" font-family="sans-serif" font-size="13" lengthAdjust="spacing" text-decoration="underline" textLength="55.5293" x="707.5898" y="873.5435">m0fixcol</text><text fill="#000000" font-family="sans-serif" font-size="13" lengthAdjust="spacing" textLength="43.5449" x="767.2515" y="873.5435">Button</text><text fill="#000000" font-family="sans-serif" font-size="13" lengthAdjust="spacing" textLength="139.9595" x="567.1733" y="888.6763">This function is about</text><text fill="#000000" font-family="sans-serif" font-size="13" lengthAdjust="spacing" textLength="173.9575" x="579.5703" y="903.8091">about showing edited cells</text><text fill="#000000" font-family="sans-serif" font-size="13" lengthAdjust="spacing" textLength="135.0845" x="567.1733" y="918.9419">and capturing inputs</text><ellipse cx="257.1465" cy="612.4375" fill="#222222" rx="10" ry="10" style="stroke:#222222;stroke-width:1.0;"/><rect fill="#E9FFFC" height="47.9375" rx="12.5" ry="12.5" style="stroke:#181818;stroke-width:0.5;" width="189.4941" x="162.3994" y="642.4375"/><text fill="#000000" font-family="sans-serif" font-size="12" lengthAdjust="spacing" textLength="169.4941" x="172.3994" y="663.5762">Get all the html Form inputs</text><text fill="#000000" font-family="sans-serif" font-size="12" lengthAdjust="spacing" textLength="135.4453" x="176.2139" y="677.5449">as ALL LIST OF INPUTS</text><rect fill="#E9FFFC" height="33.9688" rx="12.5" ry="12.5" style="stroke:#181818;stroke-width:0.5;" width="186.9805" x="163.6563" y="710.375"/><text fill="#000000" font-family="sans-serif" font-size="12" lengthAdjust="spacing" textLength="166.9805" x="173.6563" y="731.5137">Get all radios (the columns)</text><rect fill="#E9FFFC" height="33.9688" rx="12.5" ry="12.5" style="stroke:#181818;stroke-width:0.5;" width="198.8926" x="157.7002" y="764.3438"/><text fill="#000000" font-family="sans-serif" font-size="12" lengthAdjust="spacing" textLength="178.8926" x="167.7002" y="785.4824">Get all checkboxes (the rows)</text><path d="M402.96,808.3125 L402.96,839.5781 L382.96,843.5781 L402.96,847.5781 L402.96,878.8438 A0,0 0 0 0 402.96,878.8438 L551.1733,878.8438 A0,0 0 0 0 551.1733,878.8438 L551.1733,818.3125 L541.1733,808.3125 L402.96,808.3125 A0,0 0 0 0 402.96,808.3125 " fill="#FEFFDD" style="stroke:#181818;stroke-width:0.5;"/><path d="M541.1733,808.3125 L541.1733,818.3125 L551.1733,818.3125 L541.1733,808.3125 " fill="#FEFFDD" style="stroke:#181818;stroke-width:0.5;"/><text fill="#000000" font-family="sans-serif" font-size="13" lengthAdjust="spacing" textLength="99.6582" x="408.96" y="825.3794">The cells under</text><text fill="#000000" font-family="sans-serif" font-size="13" lengthAdjust="spacing" textLength="91.5713" x="408.96" y="840.5122">checked radio</text><text fill="#000000" font-family="sans-serif" font-size="13" lengthAdjust="spacing" textLength="105.3203" x="408.96" y="855.645">and checkboxes</text><text fill="#000000" font-family="sans-serif" font-size="13" lengthAdjust="spacing" textLength="127.2134" x="408.96" y="870.7778">are the ones edited</text><rect fill="#FCE9FF" height="47.9375" rx="12.5" ry="12.5" style="stroke:#181818;stroke-width:0.5;" width="251.627" x="131.333" y="819.6094"/><text fill="#000000" font-family="sans-serif" font-size="12" lengthAdjust="spacing" textLength="231.627" x="141.333" y="840.748">Filter checked radio (only one column)</text><text fill="#000000" font-family="sans-serif" font-size="12" lengthAdjust="spacing" textLength="191.5547" x="141.333" y="854.7168">and checkboxes (multiple rows)</text><polygon fill="#F1F1F1" points="180.0686,967.8125,334.2244,967.8125,346.2244,979.8125,334.2244,991.8125,180.0686,991.8125,168.0686,979.8125,180.0686,967.8125" style="stroke:#181818;stroke-width:0.5;"/><text fill="#000000" font-family="sans-serif" font-size="11" lengthAdjust="spacing" textLength="154.1558" x="180.0686" y="983.6206">INPUT ID match col/row ref?</text><text fill="#000000" font-family="sans-serif" font-size="11" lengthAdjust="spacing" textLength="19.0083" x="149.0603" y="977.2183">yes</text><text fill="#000000" font-family="sans-serif" font-size="11" lengthAdjust="spacing" textLength="13.7017" x="346.2244" y="977.2183">no</text><rect fill="#F1F1F1" height="33.9688" rx="12.5" ry="12.5" style="stroke:#181818;stroke-width:0.5;" width="116.7676" x="99.6848" y="1001.8125"/><text fill="#000000" font-family="sans-serif" font-size="12" lengthAdjust="spacing" textLength="96.7676" x="109.6848" y="1022.9512">Show input field</text><rect fill="#F1F1F1" height="33.9688" rx="12.5" ry="12.5" style="stroke:#181818;stroke-width:0.5;" width="111.7461" x="300.3513" y="1001.8125"/><text fill="#000000" font-family="sans-serif" font-size="12" lengthAdjust="spacing" textLength="91.7461" x="310.3513" y="1022.9512">Hide input field</text><polygon fill="#F1F1F1" points="257.1465,1041.7813,269.1465,1053.7813,257.1465,1065.7813,245.1465,1053.7813,257.1465,1041.7813" style="stroke:#181818;stroke-width:0.5;"/><rect fill="#F1F1F1" height="33.9688" rx="12.5" ry="12.5" style="stroke:#181818;stroke-width:0.5;" width="198.0488" x="158.1221" y="913.8438"/><text fill="#000000" font-family="sans-serif" font-size="12" lengthAdjust="spacing" textLength="178.0488" x="168.1221" y="934.9824">loop over ALL LIST OF INPUTS</text><polygon fill="#F1F1F1" points="222.9434,1085.7813,291.3496,1085.7813,303.3496,1097.7813,291.3496,1109.7813,222.9434,1109.7813,210.9434,1097.7813,222.9434,1085.7813" style="stroke:#181818;stroke-width:0.5;"/><text fill="#000000" font-family="sans-serif" font-size="11" lengthAdjust="spacing" textLength="14.9585" x="261.1465" y="1119.9917">No</text><text fill="#000000" font-family="sans-serif" font-size="11" lengthAdjust="spacing" textLength="68.4063" x="222.9434" y="1101.5894">still INPUTS?</text><text fill="#000000" font-family="sans-serif" font-size="11" lengthAdjust="spacing" textLength="19.2178" x="303.3496" y="1095.187">Yes</text><ellipse cx="257.1465" cy="1151.4917" fill="none" rx="10" ry="10" style="stroke:#222222;stroke-width:1.5;"/><line style="stroke:#222222;stroke-width:2.5;" x1="250.9593" x2="263.3337" y1="1145.3045" y2="1157.6789"/><line style="stroke:#222222;stroke-width:2.5;" x1="263.3337" x2="250.9593" y1="1145.3045" y2="1157.6789"/><rect fill="none" height="1452.7568" style="stroke:#000000;stroke-width:1.5;" width="996.4771" x="11" y="1183.4917"/><path d="M374.7393,1183.4917 L374.7393,1192.7886 L364.7393,1202.7886 L11,1202.7886 " fill="none" style="stroke:#000000;stroke-width:1.5;"/><text fill="#000000" font-family="sans-serif" font-size="14" font-weight="bold" lengthAdjust="spacing" textLength="65.3994" x="14" y="1197.4868">function</text><text fill="#000000" font-family="sans-serif" font-size="14" lengthAdjust="spacing" textLength="173.3799" x="83.8496" y="1197.4868">update - responds to the</text><text fill="#000000" font-family="sans-serif" font-size="14" lengthAdjust="spacing" text-decoration="underline" textLength="55.4326" x="261.6797" y="1197.4868">m0form</text><text fill="#000000" font-family="sans-serif" font-size="14" lengthAdjust="spacing" textLength="46.1768" x="321.5625" y="1197.4868">button</text><path d="M716.7983,1853.3433 L716.7983,1969.2729 L987.4771,1969.2729 L987.4771,1863.3433 L977.4771,1853.3433 L716.7983,1853.3433 " fill="#FEFFDD" style="stroke:#181818;stroke-width:0.5;"/><path d="M977.4771,1853.3433 L977.4771,1863.3433 L987.4771,1863.3433 L977.4771,1853.3433 " fill="#FEFFDD" style="stroke:#181818;stroke-width:0.5;"/><text fill="#000000" font-family="sans-serif" font-size="13" lengthAdjust="spacing" textLength="118.3838" x="735.1953" y="1870.4102">NOTE func update</text><text fill="#000000" font-family="sans-serif" font-size="13" lengthAdjust="spacing" textLength="43.5703" x="735.1953" y="1885.543">====</text><text fill="#000000" font-family="sans-serif" font-size="13" lengthAdjust="spacing" textLength="123.8872" x="735.1953" y="1900.6758">responds to EVENT</text><text fill="#000000" font-family="sans-serif" font-size="13" lengthAdjust="spacing" text-decoration="underline" textLength="51.4731" x="863.2148" y="1900.6758">m0form</text><text fill="#000000" font-family="sans-serif" font-size="13" lengthAdjust="spacing" textLength="43.5449" x="918.8203" y="1900.6758">Button</text><text fill="#000000" font-family="sans-serif" font-size="13" lengthAdjust="spacing" textLength="139.9595" x="722.7983" y="1915.8086">This function is about</text><text fill="#000000" font-family="sans-serif" font-size="13" lengthAdjust="spacing" textLength="237.2817" x="735.1953" y="1930.9414">collecting inputs from updated cells,</text><text fill="#000000" font-family="sans-serif" font-size="13" lengthAdjust="spacing" textLength="154.4448" x="722.7983" y="1946.0742">recalculating partitions,</text><text fill="#000000" font-family="sans-serif" font-size="13" lengthAdjust="spacing" textLength="246.1367" x="722.7983" y="1961.207">and updating output cells accordingly</text><ellipse cx="257.1465" cy="1222.7886" fill="#222222" rx="10" ry="10" style="stroke:#222222;stroke-width:1.0;"/><rect fill="#E9FFFC" height="47.9375" rx="12.5" ry="12.5" style="stroke:#181818;stroke-width:0.5;" width="189.4941" x="162.3994" y="1252.7886"/><text fill="#000000" font-family="sans-serif" font-size="12" lengthAdjust="spacing" textLength="169.4941" x="172.3994" y="1273.9272">Get all the html Form inputs</text><text fill="#000000" font-family="sans-serif" font-size="12" lengthAdjust="spacing" textLength="135.4453" x="176.2139" y="1287.896">as ALL LIST OF INPUTS</text><rect fill="#E9FFFC" height="47.9375" rx="12.5" ry="12.5" style="stroke:#181818;stroke-width:0.5;" width="219.4238" x="147.4346" y="1320.7261"/><text fill="#000000" font-family="sans-serif" font-size="12" lengthAdjust="spacing" textLength="190.6992" x="157.4346" y="1341.8647">Get all inputs with number type</text><text fill="#000000" font-family="sans-serif" font-size="12" lengthAdjust="spacing" textLength="199.4238" x="157.4346" y="1355.8335">as LIST OF NUMBER TYPE INPUTS</text><rect fill="#E9FFFC" height="33.9688" rx="12.5" ry="12.5" style="stroke:#181818;stroke-width:0.5;" width="186.9805" x="163.6563" y="1388.6636"/><text fill="#000000" font-family="sans-serif" font-size="12" lengthAdjust="spacing" textLength="166.9805" x="173.6563" y="1409.8022">Get all radios (the columns)</text><rect fill="#E9FFFC" height="33.9688" rx="12.5" ry="12.5" style="stroke:#181818;stroke-width:0.5;" width="198.8926" x="157.7002" y="1442.6323"/><text fill="#000000" font-family="sans-serif" font-size="12" lengthAdjust="spacing" textLength="178.8926" x="167.7002" y="1463.771">Get all checkboxes (the rows)</text><path d="M402.96,1486.6011 L402.96,1525.4331 L382.96,1529.4331 L402.96,1533.4331 L402.96,1572.2651 A0,0 0 0 0 402.96,1572.2651 L633.5596,1572.2651 A0,0 0 0 0 633.5596,1572.2651 L633.5596,1496.6011 L623.5596,1486.6011 L402.96,1486.6011 A0,0 0 0 0 402.96,1486.6011 " fill="#FEFFDD" style="stroke:#181818;stroke-width:0.5;"/><path d="M623.5596,1486.6011 L623.5596,1496.6011 L633.5596,1496.6011 L623.5596,1486.6011 " fill="#FEFFDD" style="stroke:#181818;stroke-width:0.5;"/><text fill="#000000" font-family="sans-serif" font-size="13" lengthAdjust="spacing" textLength="99.6582" x="408.96" y="1503.668">The cells under</text><text fill="#000000" font-family="sans-serif" font-size="13" lengthAdjust="spacing" textLength="91.5713" x="408.96" y="1518.8008">checked radio</text><text fill="#000000" font-family="sans-serif" font-size="13" lengthAdjust="spacing" textLength="105.3203" x="408.96" y="1533.9336">and checkboxes</text><text fill="#000000" font-family="sans-serif" font-size="13" lengthAdjust="spacing" textLength="106.8438" x="408.96" y="1549.0664">are those edited</text><text fill="#000000" font-family="sans-serif" font-size="13" lengthAdjust="spacing" textLength="209.5996" x="408.96" y="1564.1992">(SAME AS PREVIOUS FUNCTION)</text><rect fill="#FCE9FF" height="47.9375" rx="12.5" ry="12.5" style="stroke:#181818;stroke-width:0.5;" width="251.627" x="131.333" y="1505.4644"/><text fill="#000000" font-family="sans-serif" font-size="12" lengthAdjust="spacing" textLength="231.627" x="141.333" y="1526.603">Filter checked radio (only one column)</text><text fill="#000000" font-family="sans-serif" font-size="12" lengthAdjust="spacing" textLength="191.5547" x="141.333" y="1540.5718">and checkboxes (multiple rows)</text><rect fill="#E9FFFC" height="33.9688" rx="12.5" ry="12.5" style="stroke:#181818;stroke-width:0.5;" width="295.4082" x="109.4424" y="1592.2651"/><text fill="#000000" font-family="sans-serif" font-size="12" lengthAdjust="spacing" textLength="275.4082" x="119.4424" y="1613.4038">Get all current outputs (span HTML Elements)</text><path d="M402.3564,1636.2339 L402.3564,1667.4995 L382.3564,1671.4995 L402.3564,1675.4995 L402.3564,1706.7651 A0,0 0 0 0 402.3564,1706.7651 L706.7983,1706.7651 A0,0 0 0 0 706.7983,1706.7651 L706.7983,1646.2339 L696.7983,1636.2339 L402.3564,1636.2339 A0,0 0 0 0 402.3564,1636.2339 " fill="#FEFFDD" style="stroke:#181818;stroke-width:0.5;"/><path d="M696.7983,1636.2339 L696.7983,1646.2339 L706.7983,1646.2339 L696.7983,1636.2339 " fill="#FEFFDD" style="stroke:#181818;stroke-width:0.5;"/><text fill="#000000" font-family="sans-serif" font-size="13" lengthAdjust="spacing" textLength="208.7681" x="408.3564" y="1653.3008">this object will keep track of the</text><text fill="#000000" font-family="sans-serif" font-size="13" lengthAdjust="spacing" textLength="261.7456" x="408.3564" y="1668.4336">updated data. Keys are the col/row refs.</text><text fill="#000000" font-family="sans-serif" font-size="13" lengthAdjust="spacing" textLength="283.4419" x="408.3564" y="1683.5664">There are properties collecting contribution</text><text fill="#000000" font-family="sans-serif" font-size="13" lengthAdjust="spacing" textLength="133.853" x="408.3564" y="1698.6992">values and statuses.</text><rect fill="#E9FFFC" height="47.9375" rx="12.5" ry="12.5" style="stroke:#181818;stroke-width:0.5;" width="250.4199" x="131.9365" y="1647.5308"/><text fill="#000000" font-family="sans-serif" font-size="12" lengthAdjust="spacing" textLength="230.4199" x="141.9365" y="1668.6694">Initialize an empty Contribution object</text><text fill="#000000" font-family="sans-serif" font-size="12" lengthAdjust="spacing" textLength="13.6055" x="141.9365" y="1682.6382">as</text><text fill="#000000" font-family="sans-serif" font-size="12" font-weight="bold" lengthAdjust="spacing" textLength="65.0156" x="159.3564" y="1682.6382">newContr</text><path d="M358.0449,1716.7651 L358.0449,1748.0308 L338.0449,1752.0308 L358.0449,1756.0308 L358.0449,1787.2964 A0,0 0 0 0 358.0449,1787.2964 L678.8765,1787.2964 A0,0 0 0 0 678.8765,1787.2964 L678.8765,1726.7651 L668.8765,1716.7651 L358.0449,1716.7651 A0,0 0 0 0 358.0449,1716.7651 " fill="#FEFFDD" style="stroke:#181818;stroke-width:0.5;"/><path d="M668.8765,1716.7651 L668.8765,1726.7651 L678.8765,1726.7651 L668.8765,1716.7651 " fill="#FEFFDD" style="stroke:#181818;stroke-width:0.5;"/><text fill="#000000" font-family="sans-serif" font-size="13" lengthAdjust="spacing" textLength="206.0957" x="364.0449" y="1733.832">This counter is needed to count</text><text fill="#000000" font-family="sans-serif" font-size="13" lengthAdjust="spacing" textLength="244.7085" x="364.0449" y="1748.9648">the number of not edited Participants</text><text fill="#000000" font-family="sans-serif" font-size="13" lengthAdjust="spacing" textLength="295.6992" x="364.0449" y="1764.0977">so we can eventually calculate the remaining</text><text fill="#000000" font-family="sans-serif" font-size="13" lengthAdjust="spacing" textLength="180.1147" x="364.0449" y="1779.2305">split amount between them</text><rect fill="#E9FFFC" height="33.9688" rx="12.5" ry="12.5" style="stroke:#181818;stroke-width:0.5;" width="161.7969" x="176.248" y="1735.0464"/><text fill="#000000" font-family="sans-serif" font-size="12" lengthAdjust="spacing" textLength="141.7969" x="186.248" y="1756.1851">Initialize a Split counter</text><polygon fill="#F1F1F1" points="170.175,1889.2651,344.1179,1889.2651,356.1179,1901.2651,344.1179,1913.2651,170.175,1913.2651,158.175,1901.2651,170.175,1889.2651" style="stroke:#181818;stroke-width:0.5;"/><text fill="#000000" font-family="sans-serif" font-size="11" lengthAdjust="spacing" textLength="173.9429" x="170.175" y="1905.0732">INPUT ID match edited cells ID?</text><text fill="#000000" font-family="sans-serif" font-size="11" lengthAdjust="spacing" textLength="19.0083" x="139.1667" y="1898.6709">yes</text><text fill="#000000" font-family="sans-serif" font-size="11" lengthAdjust="spacing" textLength="13.7017" x="356.1179" y="1898.6709">no</text><rect fill="#90EE90" height="61.9063" rx="12.5" ry="12.5" style="stroke:#181818;stroke-width:0.5;" width="224.1465" x="23" y="1923.2651"/><text fill="#000000" font-family="sans-serif" font-size="12" lengthAdjust="spacing" textLength="43.459" x="33" y="1944.4038">Update</text><text fill="#000000" font-family="sans-serif" font-size="12" font-weight="bold" lengthAdjust="spacing" textLength="65.0156" x="80.2734" y="1944.4038">newContr</text><text fill="#000000" font-family="sans-serif" font-size="12" lengthAdjust="spacing" textLength="69.2402" x="149.1035" y="1944.4038">by key with</text><text fill="#000000" font-family="sans-serif" font-size="12" lengthAdjust="spacing" textLength="200.332" x="33" y="1958.3726">property values corresponding to</text><text fill="#000000" font-family="sans-serif" font-size="12" lengthAdjust="spacing" textLength="68.7539" x="33" y="1972.3413">edited cells</text><rect fill="#90EE90" height="61.9063" rx="12.5" ry="12.5" style="stroke:#181818;stroke-width:0.5;" width="224.1465" x="267.1465" y="1923.2651"/><text fill="#000000" font-family="sans-serif" font-size="12" lengthAdjust="spacing" textLength="43.459" x="277.1465" y="1944.4038">Update</text><text fill="#000000" font-family="sans-serif" font-size="12" font-weight="bold" lengthAdjust="spacing" textLength="65.0156" x="324.4199" y="1944.4038">newContr</text><text fill="#000000" font-family="sans-serif" font-size="12" lengthAdjust="spacing" textLength="69.2402" x="393.25" y="1944.4038">by key with</text><text fill="#000000" font-family="sans-serif" font-size="12" lengthAdjust="spacing" textLength="200.332" x="277.1465" y="1958.3726">property values corresponding to</text><text fill="#000000" font-family="sans-serif" font-size="12" lengthAdjust="spacing" textLength="73.8281" x="277.1465" y="1972.3413">to-Split data</text><polygon fill="#F1F1F1" points="257.1465,1991.1714,269.1465,2003.1714,257.1465,2015.1714,245.1465,2003.1714,257.1465,1991.1714" style="stroke:#181818;stroke-width:0.5;"/><rect fill="#F1F1F1" height="33.9688" rx="12.5" ry="12.5" style="stroke:#181818;stroke-width:0.5;" width="262.0273" x="126.1328" y="1807.2964"/><text fill="#000000" font-family="sans-serif" font-size="12" lengthAdjust="spacing" textLength="242.0273" x="136.1328" y="1828.4351">loop over LIST OF NUMBER TYPE INPUTS</text><polygon fill="#F1F1F1" points="222.9434,2035.1714,291.3496,2035.1714,303.3496,2047.1714,291.3496,2059.1714,222.9434,2059.1714,210.9434,2047.1714,222.9434,2035.1714" style="stroke:#181818;stroke-width:0.5;"/><text fill="#000000" font-family="sans-serif" font-size="11" lengthAdjust="spacing" textLength="14.9585" x="261.1465" y="2069.3818">No</text><text fill="#000000" font-family="sans-serif" font-size="11" lengthAdjust="spacing" textLength="68.4063" x="222.9434" y="2050.9795">still INPUTS?</text><text fill="#000000" font-family="sans-serif" font-size="11" lengthAdjust="spacing" textLength="19.2178" x="303.3496" y="2044.5771">Yes</text><rect fill="#E9FFFC" height="33.9688" rx="12.5" ry="12.5" style="stroke:#181818;stroke-width:0.5;" width="174.3359" x="169.9785" y="2144.8506"/><text fill="#000000" font-family="sans-serif" font-size="12" lengthAdjust="spacing" textLength="154.3359" x="179.9785" y="2165.9893">Get (part of) the INPUT ID</text><polygon fill="#F1F1F1" points="170.175,2198.8193,344.1179,2198.8193,356.1179,2210.8193,344.1179,2222.8193,170.175,2222.8193,158.175,2210.8193,170.175,2198.8193" style="stroke:#181818;stroke-width:0.5;"/><text fill="#000000" font-family="sans-serif" font-size="11" lengthAdjust="spacing" textLength="173.9429" x="170.175" y="2214.6274">INPUT ID match edited cells ID?</text><text fill="#000000" font-family="sans-serif" font-size="11" lengthAdjust="spacing" textLength="19.0083" x="139.1667" y="2208.2251">yes</text><text fill="#000000" font-family="sans-serif" font-size="11" lengthAdjust="spacing" textLength="13.7017" x="356.1179" y="2208.2251">no</text><rect fill="#F1F1F1" height="47.9375" rx="12.5" ry="12.5" style="stroke:#181818;stroke-width:0.5;" width="243.4707" x="26.4397" y="2232.8193"/><text fill="#000000" font-family="sans-serif" font-size="12" lengthAdjust="spacing" textLength="220.5996" x="36.4397" y="2253.958">Collect current absolute contribution</text><text fill="#000000" font-family="sans-serif" font-size="12" lengthAdjust="spacing" textLength="38.4551" x="36.4397" y="2267.9268">on the</text><text fill="#000000" font-family="sans-serif" font-size="12" font-weight="bold" lengthAdjust="spacing" textLength="65.0156" x="78.7092" y="2267.9268">newContr</text><text fill="#000000" font-family="sans-serif" font-size="12" lengthAdjust="spacing" textLength="112.3711" x="147.5393" y="2267.9268">object based on ID</text><rect fill="#F1F1F1" height="33.9688" rx="12.5" ry="12.5" style="stroke:#181818;stroke-width:0.5;" width="133.2852" x="299.4753" y="2232.8193"/><text fill="#000000" font-family="sans-serif" font-size="12" lengthAdjust="spacing" textLength="113.2852" x="309.4753" y="2253.958">Assign 0 otherwise</text><polygon fill="#F1F1F1" points="257.1465,2286.7568,269.1465,2298.7568,257.1465,2310.7568,245.1465,2298.7568,257.1465,2286.7568" style="stroke:#181818;stroke-width:0.5;"/><rect fill="#F1F1F1" height="33.9688" rx="12.5" ry="12.5" style="stroke:#181818;stroke-width:0.5;" width="163.5664" x="175.3633" y="2090.8818"/><text fill="#000000" font-family="sans-serif" font-size="12" lengthAdjust="spacing" textLength="143.5664" x="185.3633" y="2112.0205">loop over All INPUT LIST</text><polygon fill="#F1F1F1" points="222.9434,2330.7568,291.3496,2330.7568,303.3496,2342.7568,291.3496,2354.7568,222.9434,2354.7568,210.9434,2342.7568,222.9434,2330.7568" style="stroke:#181818;stroke-width:0.5;"/><text fill="#000000" font-family="sans-serif" font-size="11" lengthAdjust="spacing" textLength="14.9585" x="261.1465" y="2364.9673">No</text><text fill="#000000" font-family="sans-serif" font-size="11" lengthAdjust="spacing" textLength="68.4063" x="222.9434" y="2346.5649">still INPUTS?</text><text fill="#000000" font-family="sans-serif" font-size="11" lengthAdjust="spacing" textLength="19.2178" x="303.3496" y="2340.1626">Yes</text><rect fill="#ADD8E6" height="75.875" rx="12.5" ry="12.5" style="stroke:#181818;stroke-width:0.5;" width="217.2559" x="148.5186" y="2386.4673"/><text fill="#000000" font-family="sans-serif" font-size="12" lengthAdjust="spacing" textLength="197.2559" x="158.5186" y="2407.606">Calculate remaining contribution</text><text fill="#000000" font-family="sans-serif" font-size="12" lengthAdjust="spacing" textLength="182.584" x="158.5186" y="2421.5747">(previousContr - currentContr)</text><text fill="#000000" font-family="sans-serif" font-size="12" lengthAdjust="spacing" textLength="164.4902" x="158.5186" y="2435.5435">of edited Participants using</text><text fill="#000000" font-family="sans-serif" font-size="12" lengthAdjust="spacing" textLength="103.8984" x="158.5186" y="2449.5122">data collected on</text><text fill="#000000" font-family="sans-serif" font-size="12" font-weight="bold" lengthAdjust="spacing" textLength="65.0156" x="266.2314" y="2449.5122">newContr</text><text fill="#000000" font-family="sans-serif" font-size="12" lengthAdjust="spacing" textLength="18.293" x="335.0615" y="2449.5122">obj</text><rect fill="#ADD8E6" height="47.9375" rx="12.5" ry="12.5" style="stroke:#181818;stroke-width:0.5;" width="279.9395" x="117.1768" y="2482.3423"/><text fill="#000000" font-family="sans-serif" font-size="12" lengthAdjust="spacing" textLength="191.3262" x="127.1768" y="2503.481">Split the remaining contribution</text><text fill="#000000" font-family="sans-serif" font-size="12" lengthAdjust="spacing" textLength="259.9395" x="127.1768" y="2517.4497">evenly between the rest of the Participants</text><rect fill="#90EE90" height="33.9688" rx="12.5" ry="12.5" style="stroke:#181818;stroke-width:0.5;" width="186.0664" x="164.1133" y="2550.2798"/><text fill="#000000" font-family="sans-serif" font-size="12" lengthAdjust="spacing" textLength="166.0664" x="174.1133" y="2571.4185">Update output (HTML span)</text><ellipse cx="257.1465" cy="2614.2485" fill="none" rx="10" ry="10" style="stroke:#222222;stroke-width:1.5;"/><line style="stroke:#222222;stroke-width:2.5;" x1="250.9593" x2="263.3337" y1="2608.0614" y2="2620.4357"/><line style="stroke:#222222;stroke-width:2.5;" x1="263.3337" x2="250.9593" y1="2608.0614" y2="2620.4357"/><line style="stroke:#181818;stroke-width:1.0;" x1="257.1465" x2="257.1465" y1="30" y2="50"/><polygon fill="#181818" points="253.1465,40,257.1465,50,261.1465,40,257.1465,44" style="stroke:#181818;stroke-width:1.0;"/><line style="stroke:#181818;stroke-width:1.0;" x1="257.1465" x2="257.1465" y1="83.9688" y2="103.9688"/><polygon fill="#181818" points="253.1465,93.9688,257.1465,103.9688,261.1465,93.9688,257.1465,97.9688" style="stroke:#181818;stroke-width:1.0;"/><line style="stroke:#181818;stroke-width:1.0;" x1="257.1465" x2="257.1465" y1="137.9375" y2="157.9375"/><polygon fill="#181818" points="253.1465,147.9375,257.1465,157.9375,261.1465,147.9375,257.1465,151.9375" style="stroke:#181818;stroke-width:1.0;"/><line style="stroke:#181818;stroke-width:1.0;" x1="257.1465" x2="257.1465" y1="237.2344" y2="257.2344"/><polygon fill="#181818" points="253.1465,247.2344,257.1465,257.2344,261.1465,247.2344,257.1465,251.2344" style="stroke:#181818;stroke-width:1.0;"/><line style="stroke:#181818;stroke-width:1.0;" x1="257.1465" x2="257.1465" y1="291.2031" y2="311.2969"/><polygon fill="#181818" points="253.1465,301.2969,257.1465,311.2969,261.1465,301.2969,257.1465,305.2969" style="stroke:#181818;stroke-width:1.0;"/><line style="stroke:#181818;stroke-width:1.0;" x1="257.1465" x2="257.1465" y1="345.2656" y2="380.2656"/><polygon fill="#181818" points="253.1465,370.2656,257.1465,380.2656,261.1465,370.2656,257.1465,374.2656" style="stroke:#181818;stroke-width:1.0;"/><line style="stroke:#181818;stroke-width:1.0;" x1="257.1465" x2="257.1465" y1="428.2031" y2="463.2031"/><polygon fill="#181818" points="253.1465,453.2031,257.1465,463.2031,261.1465,453.2031,257.1465,457.2031" style="stroke:#181818;stroke-width:1.0;"/><line style="stroke:#181818;stroke-width:1.0;" x1="257.1465" x2="257.1465" y1="511.1406" y2="531.1406"/><polygon fill="#181818" points="253.1465,521.1406,257.1465,531.1406,261.1465,521.1406,257.1465,525.1406" style="stroke:#181818;stroke-width:1.0;"/><line style="stroke:#181818;stroke-width:1.0;" x1="257.1465" x2="257.1465" y1="622.4375" y2="642.4375"/><polygon fill="#181818" points="253.1465,632.4375,257.1465,642.4375,261.1465,632.4375,257.1465,636.4375" style="stroke:#181818;stroke-width:1.0;"/><line style="stroke:#181818;stroke-width:1.0;" x1="257.1465" x2="257.1465" y1="690.375" y2="710.375"/><polygon fill="#181818" points="253.1465,700.375,257.1465,710.375,261.1465,700.375,257.1465,704.375" style="stroke:#181818;stroke-width:1.0;"/><line style="stroke:#181818;stroke-width:1.0;" x1="257.1465" x2="257.1465" y1="744.3438" y2="764.3438"/><polygon fill="#181818" points="253.1465,754.3438,257.1465,764.3438,261.1465,754.3438,257.1465,758.3438" style="stroke:#181818;stroke-width:1.0;"/><line style="stroke:#181818;stroke-width:1.0;" x1="257.1465" x2="257.1465" y1="798.3125" y2="819.6094"/><polygon fill="#181818" points="253.1465,809.6094,257.1465,819.6094,261.1465,809.6094,257.1465,813.6094" style="stroke:#181818;stroke-width:1.0;"/><line style="stroke:#181818;stroke-width:1.0;" x1="168.0686" x2="158.0686" y1="979.8125" y2="979.8125"/><line style="stroke:#181818;stroke-width:1.0;" x1="158.0686" x2="158.0686" y1="979.8125" y2="1001.8125"/><polygon fill="#181818" points="154.0686,991.8125,158.0686,1001.8125,162.0686,991.8125,158.0686,995.8125" style="stroke:#181818;stroke-width:1.0;"/><line style="stroke:#181818;stroke-width:1.0;" x1="346.2244" x2="356.2244" y1="979.8125" y2="979.8125"/><line style="stroke:#181818;stroke-width:1.0;" x1="356.2244" x2="356.2244" y1="979.8125" y2="1001.8125"/><polygon fill="#181818" points="352.2244,991.8125,356.2244,1001.8125,360.2244,991.8125,356.2244,995.8125" style="stroke:#181818;stroke-width:1.0;"/><line style="stroke:#181818;stroke-width:1.0;" x1="158.0686" x2="158.0686" y1="1035.7813" y2="1053.7813"/><line style="stroke:#181818;stroke-width:1.0;" x1="158.0686" x2="245.1465" y1="1053.7813" y2="1053.7813"/><polygon fill="#181818" points="235.1465,1049.7813,245.1465,1053.7813,235.1465,1057.7813,239.1465,1053.7813" style="stroke:#181818;stroke-width:1.0;"/><line style="stroke:#181818;stroke-width:1.0;" x1="356.2244" x2="356.2244" y1="1035.7813" y2="1053.7813"/><line style="stroke:#181818;stroke-width:1.0;" x1="356.2244" x2="269.1465" y1="1053.7813" y2="1053.7813"/><polygon fill="#181818" points="279.1465,1049.7813,269.1465,1053.7813,279.1465,1057.7813,275.1465,1053.7813" style="stroke:#181818;stroke-width:1.0;"/><line style="stroke:#181818;stroke-width:1.0;" x1="257.1465" x2="257.1465" y1="947.8125" y2="967.8125"/><polygon fill="#181818" points="253.1465,957.8125,257.1465,967.8125,261.1465,957.8125,257.1465,961.8125" style="stroke:#181818;stroke-width:1.0;"/><line style="stroke:#181818;stroke-width:1.0;" x1="303.3496" x2="434.0974" y1="1097.7813" y2="1097.7813"/><polygon fill="#181818" points="430.0974,1024.3047,434.0974,1014.3047,438.0974,1024.3047,434.0974,1020.3047" style="stroke:#181818;stroke-width:1.0;"/><line style="stroke:#181818;stroke-width:1.0;" x1="434.0974" x2="434.0974" y1="930.8281" y2="1097.7813"/><line style="stroke:#181818;stroke-width:1.0;" x1="434.0974" x2="356.1709" y1="930.8281" y2="930.8281"/><polygon fill="#181818" points="366.1709,926.8281,356.1709,930.8281,366.1709,934.8281,362.1709,930.8281" style="stroke:#181818;stroke-width:1.0;"/><line style="stroke:#181818;stroke-width:1.0;" x1="257.1465" x2="257.1465" y1="1065.7813" y2="1085.7813"/><polygon fill="#181818" points="253.1465,1075.7813,257.1465,1085.7813,261.1465,1075.7813,257.1465,1079.7813" style="stroke:#181818;stroke-width:1.0;"/><line style="stroke:#181818;stroke-width:1.0;" x1="257.1465" x2="257.1465" y1="867.5469" y2="913.8438"/><polygon fill="#181818" points="253.1465,903.8438,257.1465,913.8438,261.1465,903.8438,257.1465,907.8438" style="stroke:#181818;stroke-width:1.0;"/><line style="stroke:#181818;stroke-width:1.0;" x1="257.1465" x2="257.1465" y1="1109.7813" y2="1141.4917"/><polygon fill="#181818" points="253.1465,1131.4917,257.1465,1141.4917,261.1465,1131.4917,257.1465,1135.4917" style="stroke:#181818;stroke-width:1.0;"/><line style="stroke:#181818;stroke-width:1.0;" x1="257.1465" x2="257.1465" y1="1232.7886" y2="1252.7886"/><polygon fill="#181818" points="253.1465,1242.7886,257.1465,1252.7886,261.1465,1242.7886,257.1465,1246.7886" style="stroke:#181818;stroke-width:1.0;"/><line style="stroke:#181818;stroke-width:1.0;" x1="257.1465" x2="257.1465" y1="1300.7261" y2="1320.7261"/><polygon fill="#181818" points="253.1465,1310.7261,257.1465,1320.7261,261.1465,1310.7261,257.1465,1314.7261" style="stroke:#181818;stroke-width:1.0;"/><line style="stroke:#181818;stroke-width:1.0;" x1="257.1465" x2="257.1465" y1="1368.6636" y2="1388.6636"/><polygon fill="#181818" points="253.1465,1378.6636,257.1465,1388.6636,261.1465,1378.6636,257.1465,1382.6636" style="stroke:#181818;stroke-width:1.0;"/><line style="stroke:#181818;stroke-width:1.0;" x1="257.1465" x2="257.1465" y1="1422.6323" y2="1442.6323"/><polygon fill="#181818" points="253.1465,1432.6323,257.1465,1442.6323,261.1465,1432.6323,257.1465,1436.6323" style="stroke:#181818;stroke-width:1.0;"/><line style="stroke:#181818;stroke-width:1.0;" x1="257.1465" x2="257.1465" y1="1476.6011" y2="1505.4644"/><polygon fill="#181818" points="253.1465,1495.4644,257.1465,1505.4644,261.1465,1495.4644,257.1465,1499.4644" style="stroke:#181818;stroke-width:1.0;"/><line style="stroke:#181818;stroke-width:1.0;" x1="257.1465" x2="257.1465" y1="1553.4019" y2="1592.2651"/><polygon fill="#181818" points="253.1465,1582.2651,257.1465,1592.2651,261.1465,1582.2651,257.1465,1586.2651" style="stroke:#181818;stroke-width:1.0;"/><line style="stroke:#181818;stroke-width:1.0;" x1="257.1465" x2="257.1465" y1="1626.2339" y2="1647.5308"/><polygon fill="#181818" points="253.1465,1637.5308,257.1465,1647.5308,261.1465,1637.5308,257.1465,1641.5308" style="stroke:#181818;stroke-width:1.0;"/><line style="stroke:#181818;stroke-width:1.0;" x1="257.1465" x2="257.1465" y1="1695.4683" y2="1735.0464"/><polygon fill="#181818" points="253.1465,1725.0464,257.1465,1735.0464,261.1465,1725.0464,257.1465,1729.0464" style="stroke:#181818;stroke-width:1.0;"/><line style="stroke:#181818;stroke-width:1.0;" x1="158.175" x2="135.0732" y1="1901.2651" y2="1901.2651"/><line style="stroke:#181818;stroke-width:1.0;" x1="135.0732" x2="135.0732" y1="1901.2651" y2="1923.2651"/><polygon fill="#181818" points="131.0732,1913.2651,135.0732,1923.2651,139.0732,1913.2651,135.0732,1917.2651" style="stroke:#181818;stroke-width:1.0;"/><line style="stroke:#181818;stroke-width:1.0;" x1="356.1179" x2="379.2197" y1="1901.2651" y2="1901.2651"/><line style="stroke:#181818;stroke-width:1.0;" x1="379.2197" x2="379.2197" y1="1901.2651" y2="1923.2651"/><polygon fill="#181818" points="375.2197,1913.2651,379.2197,1923.2651,383.2197,1913.2651,379.2197,1917.2651" style="stroke:#181818;stroke-width:1.0;"/><line style="stroke:#181818;stroke-width:1.0;" x1="135.0732" x2="135.0732" y1="1985.1714" y2="2003.1714"/><line style="stroke:#181818;stroke-width:1.0;" x1="135.0732" x2="245.1465" y1="2003.1714" y2="2003.1714"/><polygon fill="#181818" points="235.1465,1999.1714,245.1465,2003.1714,235.1465,2007.1714,239.1465,2003.1714" style="stroke:#181818;stroke-width:1.0;"/><line style="stroke:#181818;stroke-width:1.0;" x1="379.2197" x2="379.2197" y1="1985.1714" y2="2003.1714"/><line style="stroke:#181818;stroke-width:1.0;" x1="379.2197" x2="269.1465" y1="2003.1714" y2="2003.1714"/><polygon fill="#181818" points="279.1465,1999.1714,269.1465,2003.1714,279.1465,2007.1714,275.1465,2003.1714" style="stroke:#181818;stroke-width:1.0;"/><line style="stroke:#181818;stroke-width:1.0;" x1="257.1465" x2="257.1465" y1="1841.2651" y2="1889.2651"/><polygon fill="#181818" points="253.1465,1879.2651,257.1465,1889.2651,261.1465,1879.2651,257.1465,1883.2651" style="stroke:#181818;stroke-width:1.0;"/><text fill="#000000" font-family="sans-serif" font-size="11" font-style="italic" lengthAdjust="spacing" textLength="232.5845" x="261.1465" y="1869.0732">Visiting only editable cells (number types)</text><line style="stroke:#181818;stroke-width:1.0;" x1="303.3496" x2="513.293" y1="2047.1714" y2="2047.1714"/><polygon fill="#181818" points="509.293,1959.7261,513.293,1949.7261,517.293,1959.7261,513.293,1955.7261" style="stroke:#181818;stroke-width:1.0;"/><line style="stroke:#181818;stroke-width:1.0;" x1="513.293" x2="513.293" y1="1824.2808" y2="2047.1714"/><line style="stroke:#181818;stroke-width:1.0;" x1="513.293" x2="388.1602" y1="1824.2808" y2="1824.2808"/><polygon fill="#181818" points="398.1602,1820.2808,388.1602,1824.2808,398.1602,1828.2808,394.1602,1824.2808" style="stroke:#181818;stroke-width:1.0;"/><line style="stroke:#181818;stroke-width:1.0;" x1="257.1465" x2="257.1465" y1="2015.1714" y2="2035.1714"/><polygon fill="#181818" points="253.1465,2025.1714,257.1465,2035.1714,261.1465,2025.1714,257.1465,2029.1714" style="stroke:#181818;stroke-width:1.0;"/><line style="stroke:#181818;stroke-width:1.0;" x1="257.1465" x2="257.1465" y1="1769.0151" y2="1807.2964"/><polygon fill="#181818" points="253.1465,1797.2964,257.1465,1807.2964,261.1465,1797.2964,257.1465,1801.2964" style="stroke:#181818;stroke-width:1.0;"/><line style="stroke:#181818;stroke-width:1.0;" x1="158.175" x2="148.175" y1="2210.8193" y2="2210.8193"/><line style="stroke:#181818;stroke-width:1.0;" x1="148.175" x2="148.175" y1="2210.8193" y2="2232.8193"/><polygon fill="#181818" points="144.175,2222.8193,148.175,2232.8193,152.175,2222.8193,148.175,2226.8193" style="stroke:#181818;stroke-width:1.0;"/><line style="stroke:#181818;stroke-width:1.0;" x1="356.1179" x2="366.1179" y1="2210.8193" y2="2210.8193"/><line style="stroke:#181818;stroke-width:1.0;" x1="366.1179" x2="366.1179" y1="2210.8193" y2="2232.8193"/><polygon fill="#181818" points="362.1179,2222.8193,366.1179,2232.8193,370.1179,2222.8193,366.1179,2226.8193" style="stroke:#181818;stroke-width:1.0;"/><line style="stroke:#181818;stroke-width:1.0;" x1="148.175" x2="148.175" y1="2280.7568" y2="2298.7568"/><line style="stroke:#181818;stroke-width:1.0;" x1="148.175" x2="245.1465" y1="2298.7568" y2="2298.7568"/><polygon fill="#181818" points="235.1465,2294.7568,245.1465,2298.7568,235.1465,2302.7568,239.1465,2298.7568" style="stroke:#181818;stroke-width:1.0;"/><line style="stroke:#181818;stroke-width:1.0;" x1="366.1179" x2="366.1179" y1="2266.7881" y2="2298.7568"/><line style="stroke:#181818;stroke-width:1.0;" x1="366.1179" x2="269.1465" y1="2298.7568" y2="2298.7568"/><polygon fill="#181818" points="279.1465,2294.7568,269.1465,2298.7568,279.1465,2302.7568,275.1465,2298.7568" style="stroke:#181818;stroke-width:1.0;"/><line style="stroke:#181818;stroke-width:1.0;" x1="257.1465" x2="257.1465" y1="2178.8193" y2="2198.8193"/><polygon fill="#181818" points="253.1465,2188.8193,257.1465,2198.8193,261.1465,2188.8193,257.1465,2192.8193" style="stroke:#181818;stroke-width:1.0;"/><line style="stroke:#181818;stroke-width:1.0;" x1="257.1465" x2="257.1465" y1="2124.8506" y2="2144.8506"/><polygon fill="#181818" points="253.1465,2134.8506,257.1465,2144.8506,261.1465,2134.8506,257.1465,2138.8506" style="stroke:#181818;stroke-width:1.0;"/><line style="stroke:#181818;stroke-width:1.0;" x1="303.3496" x2="454.7605" y1="2342.7568" y2="2342.7568"/><polygon fill="#181818" points="450.7605,2227.8115,454.7605,2217.8115,458.7605,2227.8115,454.7605,2223.8115" style="stroke:#181818;stroke-width:1.0;"/><line style="stroke:#181818;stroke-width:1.0;" x1="454.7605" x2="454.7605" y1="2107.8662" y2="2342.7568"/><line style="stroke:#181818;stroke-width:1.0;" x1="454.7605" x2="338.9297" y1="2107.8662" y2="2107.8662"/><polygon fill="#181818" points="348.9297,2103.8662,338.9297,2107.8662,348.9297,2111.8662,344.9297,2107.8662" style="stroke:#181818;stroke-width:1.0;"/><line style="stroke:#181818;stroke-width:1.0;" x1="257.1465" x2="257.1465" y1="2310.7568" y2="2330.7568"/><polygon fill="#181818" points="253.1465,2320.7568,257.1465,2330.7568,261.1465,2320.7568,257.1465,2324.7568" style="stroke:#181818;stroke-width:1.0;"/><line style="stroke:#181818;stroke-width:1.0;" x1="257.1465" x2="257.1465" y1="2059.1714" y2="2090.8818"/><polygon fill="#181818" points="253.1465,2080.8818,257.1465,2090.8818,261.1465,2080.8818,257.1465,2084.8818" style="stroke:#181818;stroke-width:1.0;"/><line style="stroke:#181818;stroke-width:1.0;" x1="257.1465" x2="257.1465" y1="2354.7568" y2="2386.4673"/><polygon fill="#181818" points="253.1465,2376.4673,257.1465,2386.4673,261.1465,2376.4673,257.1465,2380.4673" style="stroke:#181818;stroke-width:1.0;"/><line style="stroke:#181818;stroke-width:1.0;" x1="257.1465" x2="257.1465" y1="2462.3423" y2="2482.3423"/><polygon fill="#181818" points="253.1465,2472.3423,257.1465,2482.3423,261.1465,2472.3423,257.1465,2476.3423" style="stroke:#181818;stroke-width:1.0;"/><line style="stroke:#181818;stroke-width:1.0;" x1="257.1465" x2="257.1465" y1="2530.2798" y2="2550.2798"/><polygon fill="#181818" points="253.1465,2540.2798,257.1465,2550.2798,261.1465,2540.2798,257.1465,2544.2798" style="stroke:#181818;stroke-width:1.0;"/><line style="stroke:#181818;stroke-width:1.0;" x1="257.1465" x2="257.1465" y1="2584.2485" y2="2604.2485"/><polygon fill="#181818" points="253.1465,2594.2485,257.1465,2604.2485,261.1465,2594.2485,257.1465,2598.2485" style="stroke:#181818;stroke-width:1.0;"/><!--SRC=[vLPDSzis43qBls8dkL2QsigryhGTnv4RJMtP4ycUoSa3aKiBDGXm0D2oskb_xov8IgIjf4wcFLKd2XzlTz- -tOKFqWNn5d_CypoT_8e1bZP83QTQsr2W2IVYhLRtwt3l4Ct4LGP68sLK68rE19fCb7HV1MKDl1cDyiga_3qQ0PzvywSmDY0u1X10l_dLSWfyQeSIbt-YN_nOhfM75WN8ceVD6WreApDbxe_5G0oMQzmVyUInr1fi5SegG8fQUp5G9bYGa64kAnq07mbYvoY1d5j7suLrX6HTGV6gejJ8ySe86yWFCTXRMTjAP-1GPY0Du5D0P-XM9eCa3uwP2U1GXQ_vZ9IjT8MJCwdJIajYOSfUd5aJd5fL33k1HQdLZk5_FdwDBcKNxv7kv2adRNAko7I70Qp3y93uKXe_144UPnGGKh3ERiQfrLLX-cczAJCssRNcuxMzHIzWjMM0kDw2i0B- -g86gWXxPZKS4NU-j2RpG9cvkolUvUg9GExkWCm5QxucbHrCNojTnEdjTBxiuxwFk2oNhgJeMww8geWGlpYv6z8MOAO2PhM4G0nYcB8CbUDDPOXS_oBFdRhX713Bi0w51X9OqTu1wU7quW8kPeibN9t3R7vziroSlBZiIEAMyiOWDRz- -F9KkiRqOMMVi3b96Od7TdBGfCtw50KJCI6nHc_1cXQNH16Zwq0LL2UAIg35woGZ5bpDIcKo0XU3Fdp3rHwD5aXix1tPz0snU-uSbYW3JBIr9TX7GZn4ZyeXYTym-m253EcQlH-p0XtclmmPtq2oHJyKamNbiEORSeKw8sLgZv0OIviVLORFDascyjQFpLfHt8aFYkYjhHCw2INvJDZiCYHpmdcDrfy9dIc8eYGvV8FKNwNp6l8LAYVMDDBwJiMGEriqfXgz_o063jEcz_39NPYynUcDntcdssb1fgbrt9drzZ-jZSRnZGfhC5Mn8is4ROc2hhTNvpUNxwUVOFdvUle_AZ5BAc_gQv0iJY-dSBg0wq_JszdLpGBER-PdozdLVBXFpejWA-UempTfRSO6V5nUNi2q6IKTYcOqivNKwW-CSx0emxOtDS2kVYUjSLv68uERkCTFXMwmF5oRWvHHyk41iOJWPFe0Dez24ODMdZnYZ-4tt9BOcgRIQGF-E7976xnPEbiYwPRuwOW-xVWd1e-Incmzt4YdeVBeZr-oquspdj84KndA-_EyAT_kSDKPn8oSfagDYnmhjeAbqBYND6FccWiiLKGsbS70MzXGOCmfZVrGKMQsaExU0b65M4XwCb50T3nw90ks0IiC6nhYVAZuMfFzSg68evzXFBvLNjKLpb9cD-LAjx9CEbNdX-FnmVxScw2p3_qUVU2zqPK8louUS5kNk6WokOKcNTHbcZR83XAzeckhs-t_PJF17jNfPnr-v-0uCE_Q2p4f_GwKSEibiKJoe6Nus_cUdDKbiAjmkVBKcWBs2o8-TfznrDJcYjws6QaXck_CqrFlrRs1Ts3vLRbH7h-Jc8FlthtEUtucfSD7PIiVdQGvsuGL_rAtfUewK5bG-LWndBss9zGnFG-uzmglKzwlkfutNALK99tIup4TslRLTU7WIxiPeadiiznnXyrR-cy0]--></g></svg>