<svg xmlns="http://www.w3.org/2000/svg" xmlns:xlink="http://www.w3.org/1999/xlink" contentStyleType="text/css" height="756px" preserveAspectRatio="none" style="width:550px;height:756px;background:#FFFFFF;" version="1.1" viewBox="0 0 550 756" width="550px" zoomAndPan="magnify"><defs/><g><ellipse cx="130.002" cy="20" fill="#222222" rx="10" ry="10" style="stroke:#222222;stroke-width:1.0;"/><rect fill="#F1F1F1" height="33.9688" rx="12.5" ry="12.5" style="stroke:#181818;stroke-width:0.5;" width="93.1777" x="83.4131" y="50"/><text fill="#000000" font-family="sans-serif" font-size="12" lengthAdjust="spacing" textLength="73.1777" x="93.4131" y="71.1387">Initialization</text><rect fill="#E9FFFC" height="33.9688" rx="12.5" ry="12.5" style="stroke:#181818;stroke-width:0.5;" width="133.7246" x="63.1396" y="103.9688"/><text fill="#000000" font-family="sans-serif" font-size="12" lengthAdjust="spacing" textLength="113.7246" x="73.1396" y="125.1074">Instantiate dataset</text><rect fill="#E9FFFC" height="33.9688" rx="12.5" ry="12.5" style="stroke:#181818;stroke-width:0.5;" width="206.1113" x="26.9463" y="157.9375"/><text fill="#000000" font-family="sans-serif" font-size="12" lengthAdjust="spacing" textLength="186.1113" x="36.9463" y="179.0762">Get recordIds from the dataset</text><path d="M259.667,216.3242 L259.667,224.8906 L239.667,228.8906 L259.667,232.8906 L259.667,241.457 A0,0 0 0 0 259.667,241.457 L538.4644,241.457 A0,0 0 0 0 538.4644,241.457 L538.4644,226.3242 L528.4644,216.3242 L259.667,216.3242 A0,0 0 0 0 259.667,216.3242 " fill="#FEFFDD" style="stroke:#181818;stroke-width:0.5;"/><path d="M528.4644,216.3242 L528.4644,226.3242 L538.4644,226.3242 L528.4644,216.3242 " fill="#FEFFDD" style="stroke:#181818;stroke-width:0.5;"/><text fill="#000000" font-family="sans-serif" font-size="13" lengthAdjust="spacing" text-decoration="underline" textLength="114.5371" x="265.667" y="233.3911">selectedCells and</text><text fill="#000000" font-family="sans-serif" font-size="13" lengthAdjust="spacing" textLength="139.1279" x="384.3364" y="233.3911">updatedContribs objs</text><rect fill="#E9FFFC" height="33.9688" rx="12.5" ry="12.5" style="stroke:#181818;stroke-width:0.5;" width="219.3301" x="20.3369" y="211.9063"/><text fill="#000000" font-family="sans-serif" font-size="12" lengthAdjust="spacing" textLength="199.3301" x="30.3369" y="233.0449">Instantiate empty data collectors</text><rect fill="#E9FFFC" height="33.9688" rx="12.5" ry="12.5" style="stroke:#181818;stroke-width:0.5;" width="137.3867" x="61.3086" y="265.875"/><text fill="#000000" font-family="sans-serif" font-size="12" lengthAdjust="spacing" textLength="117.3867" x="71.3086" y="287.0137">Get Total Allotment</text><rect fill="#FFB6C1" height="47.9375" rx="12.5" ry="12.5" style="stroke:#181818;stroke-width:0.5;" width="238.0039" x="11" y="319.8438"/><text fill="#000000" font-family="sans-serif" font-size="12" lengthAdjust="spacing" textLength="57.3926" x="21" y="340.9824">Declare a</text><text fill="#000000" font-family="sans-serif" font-size="12" font-weight="bold" lengthAdjust="spacing" textLength="56.0566" x="82.207" y="340.9824">function</text><text fill="#000000" font-family="sans-serif" font-size="12" lengthAdjust="spacing" textLength="218.0039" x="21" y="354.9512">to collect Editable cells ("Editables")</text><rect fill="#FFB6C1" height="47.9375" rx="12.5" ry="12.5" style="stroke:#181818;stroke-width:0.5;" width="174.875" x="42.5645" y="387.7813"/><text fill="#000000" font-family="sans-serif" font-size="12" lengthAdjust="spacing" textLength="57.3926" x="52.5645" y="408.9199">Declare a</text><text fill="#000000" font-family="sans-serif" font-size="12" font-weight="bold" lengthAdjust="spacing" textLength="56.0566" x="113.7715" y="408.9199">function</text><text fill="#000000" font-family="sans-serif" font-size="12" lengthAdjust="spacing" textLength="154.875" x="52.5645" y="422.8887">to collect the Output cells</text><rect fill="#FFB6C1" height="33.9688" rx="12.5" ry="12.5" style="stroke:#181818;stroke-width:0.5;" width="151.707" x="54.1484" y="455.7188"/><text fill="#000000" font-family="sans-serif" font-size="12" lengthAdjust="spacing" textLength="131.707" x="64.1484" y="476.8574">Declare populateFunc</text><rect fill="#FFB6C1" height="33.9688" rx="12.5" ry="12.5" style="stroke:#181818;stroke-width:0.5;" width="204.459" x="27.7725" y="509.6875"/><text fill="#000000" font-family="sans-serif" font-size="12" lengthAdjust="spacing" textLength="184.459" x="37.7725" y="530.8262">Declare __getCheckedColRows</text><rect fill="#FFB6C1" height="33.9688" rx="12.5" ry="12.5" style="stroke:#181818;stroke-width:0.5;" width="142.332" x="58.8359" y="563.6563"/><text fill="#000000" font-family="sans-serif" font-size="12" lengthAdjust="spacing" textLength="122.332" x="68.8359" y="584.7949">Declare editBtnFunc</text><rect fill="#FFB6C1" height="33.9688" rx="12.5" ry="12.5" style="stroke:#181818;stroke-width:0.5;" width="161.5742" x="49.2148" y="617.625"/><text fill="#000000" font-family="sans-serif" font-size="12" lengthAdjust="spacing" textLength="141.5742" x="59.2148" y="638.7637">Declare updateBtnFunc</text><rect fill="#90EE90" height="33.9688" rx="12.5" ry="12.5" style="stroke:#181818;stroke-width:0.5;" width="136.4082" x="61.7979" y="671.5938"/><text fill="#000000" font-family="sans-serif" font-size="12" lengthAdjust="spacing" textLength="20.1445" x="71.7979" y="692.7324">run</text><text fill="#000000" font-family="sans-serif" font-size="12" font-weight="bold" lengthAdjust="spacing" textLength="92.4492" x="95.7568" y="692.7324">populateFunc</text><ellipse cx="130.002" cy="735.5625" fill="none" rx="10" ry="10" style="stroke:#222222;stroke-width:1.5;"/><line style="stroke:#222222;stroke-width:2.5;" x1="123.8148" x2="136.1891" y1="729.3753" y2="741.7497"/><line style="stroke:#222222;stroke-width:2.5;" x1="136.1891" x2="123.8148" y1="729.3753" y2="741.7497"/><line style="stroke:#181818;stroke-width:1.0;" x1="130.002" x2="130.002" y1="30" y2="50"/><polygon fill="#181818" points="126.002,40,130.002,50,134.002,40,130.002,44" style="stroke:#181818;stroke-width:1.0;"/><line style="stroke:#181818;stroke-width:1.0;" x1="130.002" x2="130.002" y1="83.9688" y2="103.9688"/><polygon fill="#181818" points="126.002,93.9688,130.002,103.9688,134.002,93.9688,130.002,97.9688" style="stroke:#181818;stroke-width:1.0;"/><line style="stroke:#181818;stroke-width:1.0;" x1="130.002" x2="130.002" y1="137.9375" y2="157.9375"/><polygon fill="#181818" points="126.002,147.9375,130.002,157.9375,134.002,147.9375,130.002,151.9375" style="stroke:#181818;stroke-width:1.0;"/><line style="stroke:#181818;stroke-width:1.0;" x1="130.002" x2="130.002" y1="191.9063" y2="211.9063"/><polygon fill="#181818" points="126.002,201.9063,130.002,211.9063,134.002,201.9063,130.002,205.9063" style="stroke:#181818;stroke-width:1.0;"/><line style="stroke:#181818;stroke-width:1.0;" x1="130.002" x2="130.002" y1="245.875" y2="265.875"/><polygon fill="#181818" points="126.002,255.875,130.002,265.875,134.002,255.875,130.002,259.875" style="stroke:#181818;stroke-width:1.0;"/><line style="stroke:#181818;stroke-width:1.0;" x1="130.002" x2="130.002" y1="299.8438" y2="319.8438"/><polygon fill="#181818" points="126.002,309.8438,130.002,319.8438,134.002,309.8438,130.002,313.8438" style="stroke:#181818;stroke-width:1.0;"/><line style="stroke:#181818;stroke-width:1.0;" x1="130.002" x2="130.002" y1="367.7813" y2="387.7813"/><polygon fill="#181818" points="126.002,377.7813,130.002,387.7813,134.002,377.7813,130.002,381.7813" style="stroke:#181818;stroke-width:1.0;"/><line style="stroke:#181818;stroke-width:1.0;" x1="130.002" x2="130.002" y1="435.7188" y2="455.7188"/><polygon fill="#181818" points="126.002,445.7188,130.002,455.7188,134.002,445.7188,130.002,449.7188" style="stroke:#181818;stroke-width:1.0;"/><line style="stroke:#181818;stroke-width:1.0;" x1="130.002" x2="130.002" y1="489.6875" y2="509.6875"/><polygon fill="#181818" points="126.002,499.6875,130.002,509.6875,134.002,499.6875,130.002,503.6875" style="stroke:#181818;stroke-width:1.0;"/><line style="stroke:#181818;stroke-width:1.0;" x1="130.002" x2="130.002" y1="543.6563" y2="563.6563"/><polygon fill="#181818" points="126.002,553.6563,130.002,563.6563,134.002,553.6563,130.002,557.6563" style="stroke:#181818;stroke-width:1.0;"/><line style="stroke:#181818;stroke-width:1.0;" x1="130.002" x2="130.002" y1="597.625" y2="617.625"/><polygon fill="#181818" points="126.002,607.625,130.002,617.625,134.002,607.625,130.002,611.625" style="stroke:#181818;stroke-width:1.0;"/><line style="stroke:#181818;stroke-width:1.0;" x1="130.002" x2="130.002" y1="651.5938" y2="671.5938"/><polygon fill="#181818" points="126.002,661.5938,130.002,671.5938,134.002,661.5938,130.002,665.5938" style="stroke:#181818;stroke-width:1.0;"/><line style="stroke:#181818;stroke-width:1.0;" x1="130.002" x2="130.002" y1="705.5625" y2="725.5625"/><polygon fill="#181818" points="126.002,715.5625,130.002,725.5625,134.002,715.5625,130.002,719.5625" style="stroke:#181818;stroke-width:1.0;"/><!--SRC=[bL9DJnin4BtxLupe9La9r0AgO7DfIG2H9W81uRfolBCR4-zuPO-3wA_l61JneN3ePG_pthnzxuqZwy2gl2BBLZlxLxFrD5BVyBHf6YFpo9e4OeHQiux8R-0bCWGqFjHNTOGc-0vujOFtNWIxdfzVA62ySsZOXpXIv0KBjbsnggg8UOxr69sBeAc6gagzxCZ84mUxZE2NZr6XG7dpWwDxpzh1R-SyTqZPXikwlQLrEK7ZT43GK1HD8fF35eLYlpK3vxLblNG8vkNdWxtj8EuD_rCgTt6Tk4_yAhPplVTzSfBiGYHs4gggHHwlqAnpUdVhdtOBeVWyO_fIvxN0Jums858P4ac8zqwAOfJBLR_amwbpIjqukU1YFeCDXYXHuSV1uVV3uuEJ9R8-6YneJVw997lNMscFROT3DRYycK7qAHXv5JRcowNSqr1DzKR3RQBCA-6wHvfE_cm7S4uR6ppbywdfm_oDyFDu_ymot64G6_0mLnDiT79oDZA-jjIMiBY_s3zHCqrjqgre8wcn5ztmBDZTFm00]--></g></svg>