<svg xmlns="http://www.w3.org/2000/svg" xmlns:xlink="http://www.w3.org/1999/xlink" contentStyleType="text/css" height="401px" preserveAspectRatio="none" style="width:807px;height:401px;background:#FFFFFF;" version="1.1" viewBox="0 0 807 401" width="807px" zoomAndPan="magnify"><defs/><g><rect fill="none" height="379.1328" style="stroke:#000000;stroke-width:1.5;" width="785.98" x="11" y="11"/><path d="M186.1289,11 L186.1289,20.2969 L176.1289,30.2969 L11,30.2969 " fill="none" style="stroke:#000000;stroke-width:1.5;"/><text fill="#000000" font-family="sans-serif" font-size="14" font-weight="bold" lengthAdjust="spacing" textLength="65.3994" x="14" y="24.9951">function</text><text fill="#000000" font-family="sans-serif" font-size="14" lengthAdjust="spacing" textLength="95.2793" x="83.8496" y="24.9951">populateFunc</text><path d="M546.3486,148.2344 L546.3486,274.1641 L776.98,274.1641 L776.98,158.2344 L766.98,148.2344 L546.3486,148.2344 " fill="#FEFFDD" style="stroke:#181818;stroke-width:0.5;"/><path d="M766.98,148.2344 L766.98,158.2344 L776.98,158.2344 L766.98,148.2344 " fill="#FEFFDD" style="stroke:#181818;stroke-width:0.5;"/><text fill="#000000" font-family="sans-serif" font-size="13" lengthAdjust="spacing" textLength="36.1118" x="552.3486" y="165.3013">NOTE</text><text fill="#000000" font-family="sans-serif" font-size="13" font-weight="bold" lengthAdjust="spacing" textLength="100.1533" x="592.5928" y="165.3013">populateFunc</text><line style="stroke:#181818;stroke-width:1.0;" x1="546.3486" x2="776.98" y1="173.3672" y2="173.3672"/><line style="stroke:#181818;stroke-width:1.0;" x1="546.3486" x2="776.98" y1="175.3672" y2="175.3672"/><text fill="#000000" font-family="sans-serif" font-size="13" lengthAdjust="spacing" textLength="189.8774" x="552.3486" y="190.4341">This function runs at laoding.</text><text fill="#000000" font-family="sans-serif" font-size="13" lengthAdjust="spacing" textLength="209.6313" x="552.3486" y="205.5669">It completes the table with rows</text><text fill="#000000" font-family="sans-serif" font-size="13" lengthAdjust="spacing" textLength="167.229" x="552.3486" y="220.6997">as records of the dataset.</text><text fill="#000000" font-family="sans-serif" font-size="13" lengthAdjust="spacing" textLength="181.6064" x="552.3486" y="235.8325">It also add the listeners and</text><text fill="#000000" font-family="sans-serif" font-size="13" lengthAdjust="spacing" textLength="200.2495" x="552.3486" y="250.9653">pre-set some of the temporary</text><text fill="#000000" font-family="sans-serif" font-size="13" lengthAdjust="spacing" textLength="106.6914" x="552.3486" y="266.0981">data collections.</text><ellipse cx="168.0801" cy="50.2969" fill="#222222" rx="10" ry="10" style="stroke:#222222;stroke-width:1.0;"/><rect fill="#F1F1F1" height="47.9375" rx="12.5" ry="12.5" style="stroke:#181818;stroke-width:0.5;" width="294.1602" x="21" y="80.2969"/><text fill="#000000" font-family="sans-serif" font-size="12" lengthAdjust="spacing" textLength="272.5664" x="31" y="101.4355">Check for table existence (if not, throw error)</text><text fill="#000000" font-family="sans-serif" font-size="12" lengthAdjust="spacing" textLength="11.4492" x="31" y="115.4043">1.</text><text fill="#000000" font-family="sans-serif" font-size="12" lengthAdjust="spacing" textLength="258.8965" x="46.2637" y="115.4043">lightblue:Calculate Even Contribution: Split</text><rect fill="#ADD8E6" height="33.9688" rx="12.5" ry="12.5" style="stroke:#181818;stroke-width:0.5;" width="263.9082" x="36.126" y="156"/><text fill="#000000" font-family="sans-serif" font-size="12" lengthAdjust="spacing" textLength="243.9082" x="46.126" y="177.1387">Calculate Even Contribution: Percentage</text><path d="M280.041,224.9688 L280.041,248.668 L260.041,252.668 L280.041,256.668 L280.041,280.3672 A0,0 0 0 0 280.041,280.3672 L536.3486,280.3672 A0,0 0 0 0 536.3486,280.3672 L536.3486,234.9688 L526.3486,224.9688 L280.041,224.9688 A0,0 0 0 0 280.041,224.9688 " fill="#FEFFDD" style="stroke:#181818;stroke-width:0.5;"/><path d="M526.3486,224.9688 L526.3486,234.9688 L536.3486,234.9688 L526.3486,224.9688 " fill="#FEFFDD" style="stroke:#181818;stroke-width:0.5;"/><text fill="#000000" font-family="sans-serif" font-size="13" lengthAdjust="spacing" textLength="213.4209" x="286.041" y="242.0356">declare corresponding attributes</text><text fill="#000000" font-family="sans-serif" font-size="13" lengthAdjust="spacing" textLength="177.0679" x="286.041" y="257.1685">insert output values by cell</text><text fill="#000000" font-family="sans-serif" font-size="13" lengthAdjust="spacing" textLength="235.3076" x="286.041" y="272.3013">insert input elements when editable</text><rect fill="#87CEEB" height="47.9375" rx="12.5" ry="12.5" style="stroke:#181818;stroke-width:0.5;" width="183.9219" x="76.1191" y="228.6992"/><text fill="#000000" font-family="sans-serif" font-size="12" lengthAdjust="spacing" textLength="163.9219" x="86.1191" y="249.8379">Iterate through the dataset</text><text fill="#000000" font-family="sans-serif" font-size="12" lengthAdjust="spacing" textLength="137.0625" x="86.1191" y="263.8066">and populate the table</text><rect fill="#90EE90" height="33.9688" rx="12.5" ry="12.5" style="stroke:#181818;stroke-width:0.5;" width="211.1738" x="62.4932" y="304.1641"/><text fill="#000000" font-family="sans-serif" font-size="12" lengthAdjust="spacing" textLength="191.1738" x="72.4932" y="325.3027">Attach event listeners (buttons)</text><ellipse cx="168.0801" cy="368.1328" fill="none" rx="10" ry="10" style="stroke:#222222;stroke-width:1.5;"/><line style="stroke:#222222;stroke-width:2.5;" x1="161.8929" x2="174.2673" y1="361.9456" y2="374.32"/><line style="stroke:#222222;stroke-width:2.5;" x1="174.2673" x2="161.8929" y1="361.9456" y2="374.32"/><line style="stroke:#181818;stroke-width:1.0;" x1="168.0801" x2="168.0801" y1="60.2969" y2="80.2969"/><polygon fill="#181818" points="164.0801,70.2969,168.0801,80.2969,172.0801,70.2969,168.0801,74.2969" style="stroke:#181818;stroke-width:1.0;"/><line style="stroke:#181818;stroke-width:1.0;" x1="168.0801" x2="168.0801" y1="128.2344" y2="156"/><polygon fill="#181818" points="164.0801,146,168.0801,156,172.0801,146,168.0801,150" style="stroke:#181818;stroke-width:1.0;"/><line style="stroke:#181818;stroke-width:1.0;" x1="168.0801" x2="168.0801" y1="189.9688" y2="228.6992"/><polygon fill="#181818" points="164.0801,218.6992,168.0801,228.6992,172.0801,218.6992,168.0801,222.6992" style="stroke:#181818;stroke-width:1.0;"/><line style="stroke:#181818;stroke-width:1.0;" x1="168.0801" x2="168.0801" y1="276.6367" y2="304.1641"/><polygon fill="#181818" points="164.0801,294.1641,168.0801,304.1641,172.0801,294.1641,168.0801,298.1641" style="stroke:#181818;stroke-width:1.0;"/><line style="stroke:#181818;stroke-width:1.0;" x1="168.0801" x2="168.0801" y1="338.1328" y2="358.1328"/><polygon fill="#181818" points="164.0801,348.1328,168.0801,358.1328,172.0801,348.1328,168.0801,352.1328" style="stroke:#181818;stroke-width:1.0;"/><!--SRC=[ZL51JiCm4Bpx5IkuG0Gye1K7L8741P3W0wupJQowjhMxeLI8lxCELFH8JbPsPcTsfdhMgB5aEkkwpPH3UtSTrLAdv1KFzkliq-MY88x3gExf-UsUkkuKq7NkrZxtDaQXunBYAGjvfUHB7_DmunwLGjdL18MGZY3rwmJQHns9orwS5sA4mhrGsSo8tgiNwCprIGhvlfy7AOeYWqqXz-Gguzfm96M78rUnguKz7yYrDQQT4cPhSkDWh7QK4xK4t68r8cnfK_ZN53vcWG2wY9k6lBATPfB0NFZIdQSMnZfDMAny2dCKTF-EJAkIbUDwQa8BUgqfwlBVy1TmG5O_m3YoFSoCHmKtV3Cm3UDfCEJQ-SSk_a9TdZRM8oJFi02O8RNaLeSrywCBSJ4BMAbCMYUbTs-YGki31QHq7CRSPaZOcJ-X_MZUqSTPxI_Ddpi71lBYJjM7aM1NwabV5wQfri7bij7SrpS0]--></g></svg>