<svg xmlns="http://www.w3.org/2000/svg" xmlns:xlink="http://www.w3.org/1999/xlink" contentStyleType="text/css" height="1110px" preserveAspectRatio="none" style="width:1607px;height:1110px;background:#FFFFFF;" version="1.1" viewBox="0 0 1607 1110" width="1607px" zoomAndPan="magnify"><defs/><g><rect fill="none" height="1088.2886" style="stroke:#000000;stroke-width:1.5;" width="1585.6011" x="11" y="11"/><path d="M197.6406,11 L197.6406,20.2969 L187.6406,30.2969 L11,30.2969 " fill="none" style="stroke:#000000;stroke-width:1.5;"/><text fill="#000000" font-family="sans-serif" font-size="14" font-weight="bold" lengthAdjust="spacing" textLength="65.3994" x="14" y="24.9951">function</text><text fill="#000000" font-family="sans-serif" font-size="14" lengthAdjust="spacing" textLength="106.791" x="83.8496" y="24.9951">updateBtnFunc</text><path d="M1265.0308,515.3472 L1265.0308,626.144 L1576.6011,626.144 L1576.6011,525.3472 L1566.6011,515.3472 L1265.0308,515.3472 " fill="#FEFFDD" style="stroke:#181818;stroke-width:0.5;"/><path d="M1566.6011,515.3472 L1566.6011,525.3472 L1576.6011,525.3472 L1566.6011,515.3472 " fill="#FEFFDD" style="stroke:#181818;stroke-width:0.5;"/><text fill="#000000" font-family="sans-serif" font-size="13" lengthAdjust="spacing" textLength="36.1118" x="1271.0308" y="532.4141">NOTE</text><text fill="#000000" font-family="sans-serif" font-size="13" font-weight="bold" lengthAdjust="spacing" textLength="112.144" x="1311.2749" y="532.4141">updateBtnFunc</text><line style="stroke:#181818;stroke-width:1.0;" x1="1265.0308" x2="1576.6011" y1="540.48" y2="540.48"/><line style="stroke:#181818;stroke-width:1.0;" x1="1265.0308" x2="1576.6011" y1="542.48" y2="542.48"/><text fill="#000000" font-family="sans-serif" font-size="13" lengthAdjust="spacing" textLength="286.6602" x="1271.0308" y="557.5469">This function is an event of "Update" button</text><text fill="#000000" font-family="sans-serif" font-size="13" lengthAdjust="spacing" textLength="270.9878" x="1271.0308" y="572.6797">It roles is to collect the inputs by the user</text><text fill="#000000" font-family="sans-serif" font-size="13" lengthAdjust="spacing" textLength="290.5703" x="1271.0308" y="587.8125">recalculate the values and update the whole</text><text fill="#000000" font-family="sans-serif" font-size="13" lengthAdjust="spacing" textLength="265.8652" x="1271.0308" y="602.9453">table accordingly before resetting all the</text><text fill="#000000" font-family="sans-serif" font-size="13" lengthAdjust="spacing" textLength="168.4985" x="1271.0308" y="618.0781">temporary data collectors</text><ellipse cx="644.0154" cy="50.2969" fill="#222222" rx="10" ry="10" style="stroke:#222222;stroke-width:1.0;"/><rect fill="#F1F1F1" height="33.9688" rx="12.5" ry="12.5" style="stroke:#181818;stroke-width:0.5;" width="93.1777" x="597.4265" y="80.2969"/><text fill="#000000" font-family="sans-serif" font-size="12" lengthAdjust="spacing" textLength="73.1777" x="607.4265" y="101.4355">Initialization</text><rect fill="#F1F1F1" height="47.9375" rx="12.5" ry="12.5" style="stroke:#181818;stroke-width:0.5;" width="234.5645" x="526.7332" y="134.2656"/><text fill="#000000" font-family="sans-serif" font-size="12" lengthAdjust="spacing" textLength="214.5645" x="536.7332" y="155.4043">Check Selected Column (absolute -,</text><text fill="#000000" font-family="sans-serif" font-size="12" lengthAdjust="spacing" textLength="187.7109" x="536.7332" y="169.373">relative splits or paid amounts)</text><rect fill="#E9FFFC" height="33.9688" rx="12.5" ry="12.5" style="stroke:#181818;stroke-width:0.5;" width="254.7676" x="516.6316" y="202.2031"/><text fill="#000000" font-family="sans-serif" font-size="12" lengthAdjust="spacing" textLength="234.7676" x="526.6316" y="223.3418">Collect Inputs for Editables accordingly</text><polygon fill="#F1F1F1" points="121.4573,256.1719,200.4822,256.1719,212.4822,268.1719,200.4822,280.1719,121.4573,280.1719,109.4573,268.1719,121.4573,256.1719" style="stroke:#181818;stroke-width:0.5;"/><text fill="#000000" font-family="sans-serif" font-size="11" lengthAdjust="spacing" textLength="19.0083" x="164.9697" y="290.3823">yes</text><text fill="#000000" font-family="sans-serif" font-size="11" lengthAdjust="spacing" textLength="79.0249" x="121.4573" y="271.98">is AbsSplt col?</text><rect fill="#E9FFFC" height="33.9688" rx="12.5" ry="12.5" style="stroke:#181818;stroke-width:0.5;" width="184.6895" x="68.625" y="311.8823"/><text fill="#000000" font-family="sans-serif" font-size="12" lengthAdjust="spacing" textLength="164.6895" x="78.625" y="333.021">Get Outputs of that column</text><rect fill="#87CEEB" height="33.9688" rx="12.5" ry="12.5" style="stroke:#181818;stroke-width:0.5;" width="131.4863" x="95.2266" y="365.8511"/><text fill="#000000" font-family="sans-serif" font-size="12" lengthAdjust="spacing" textLength="111.4863" x="105.2266" y="386.9897">Loop the Editables</text><rect fill="#90EE90" height="47.9375" rx="12.5" ry="12.5" style="stroke:#181818;stroke-width:0.5;" width="261.6465" x="30.1465" y="419.8198"/><text fill="#000000" font-family="sans-serif" font-size="12" lengthAdjust="spacing" textLength="209.0625" x="40.1465" y="440.9585">Update __updateContrbs container</text><text fill="#000000" font-family="sans-serif" font-size="12" lengthAdjust="spacing" textLength="241.6465" x="40.1465" y="454.9272">with modified contribution while looping</text><rect fill="#87CEEB" height="33.9688" rx="12.5" ry="12.5" style="stroke:#181818;stroke-width:0.5;" width="124.2441" x="98.8477" y="501.7261"/><text fill="#000000" font-family="sans-serif" font-size="12" lengthAdjust="spacing" textLength="104.2441" x="108.8477" y="522.8647">Loop the Outputs</text><rect fill="#90EE90" height="47.9375" rx="12.5" ry="12.5" style="stroke:#181818;stroke-width:0.5;" width="261.6465" x="30.1465" y="570.6948"/><text fill="#000000" font-family="sans-serif" font-size="12" lengthAdjust="spacing" textLength="209.0625" x="40.1465" y="591.8335">Update __updateContrbs container</text><text fill="#000000" font-family="sans-serif" font-size="12" lengthAdjust="spacing" textLength="241.6465" x="40.1465" y="605.8022">with modified contribution while looping</text><rect fill="#90EE90" height="47.9375" rx="12.5" ry="12.5" style="stroke:#181818;stroke-width:0.5;" width="197.7383" x="62.1006" y="653.6323"/><text fill="#000000" font-family="sans-serif" font-size="12" lengthAdjust="spacing" textLength="176.2559" x="72.1006" y="674.771">Calculate the differences btw</text><text fill="#000000" font-family="sans-serif" font-size="12" lengthAdjust="spacing" textLength="177.7383" x="72.1006" y="688.7397">current and previous contribs</text><rect fill="#E9FFFC" height="33.9688" rx="12.5" ry="12.5" style="stroke:#181818;stroke-width:0.5;" width="198.541" x="61.6992" y="721.5698"/><text fill="#000000" font-family="sans-serif" font-size="12" lengthAdjust="spacing" textLength="178.541" x="71.6992" y="742.7085">Get Outputs of other columns</text><rect fill="#ADD8E6" height="47.9375" rx="12.5" ry="12.5" style="stroke:#181818;stroke-width:0.5;" width="279.9395" x="21" y="789.5073"/><text fill="#000000" font-family="sans-serif" font-size="12" lengthAdjust="spacing" textLength="191.3262" x="31" y="810.646">Split the remaining contribution</text><text fill="#000000" font-family="sans-serif" font-size="12" lengthAdjust="spacing" textLength="259.9395" x="31" y="824.6147">evenly between the rest of the Participants</text><rect fill="#90EE90" height="33.9688" rx="12.5" ry="12.5" style="stroke:#181818;stroke-width:0.5;" width="192.3184" x="64.8105" y="857.4448"/><text fill="#000000" font-family="sans-serif" font-size="12" lengthAdjust="spacing" textLength="172.3184" x="74.8105" y="878.5835">Update outputs (HTML span)</text><polygon fill="#F1F1F1" points="412.7825,256.1719,489.0359,256.1719,501.0359,268.1719,489.0359,280.1719,412.7825,280.1719,400.7825,268.1719,412.7825,256.1719" style="stroke:#181818;stroke-width:0.5;"/><text fill="#000000" font-family="sans-serif" font-size="11" lengthAdjust="spacing" textLength="19.0083" x="454.9092" y="290.3823">yes</text><text fill="#000000" font-family="sans-serif" font-size="11" lengthAdjust="spacing" textLength="76.2534" x="412.7825" y="271.98">is RelSplt col?</text><rect fill="#E9FFFC" height="33.9688" rx="12.5" ry="12.5" style="stroke:#181818;stroke-width:0.5;" width="184.6895" x="358.5645" y="311.8823"/><text fill="#000000" font-family="sans-serif" font-size="12" lengthAdjust="spacing" textLength="164.6895" x="368.5645" y="333.021">Get Outputs of that column</text><rect fill="#87CEEB" height="33.9688" rx="12.5" ry="12.5" style="stroke:#181818;stroke-width:0.5;" width="131.4863" x="385.166" y="365.8511"/><text fill="#000000" font-family="sans-serif" font-size="12" lengthAdjust="spacing" textLength="111.4863" x="395.166" y="386.9897">Loop the Editables</text><rect fill="#90EE90" height="47.9375" rx="12.5" ry="12.5" style="stroke:#181818;stroke-width:0.5;" width="261.6465" x="320.0859" y="419.8198"/><text fill="#000000" font-family="sans-serif" font-size="12" lengthAdjust="spacing" textLength="209.0625" x="330.0859" y="440.9585">Update __updateContrbs container</text><text fill="#000000" font-family="sans-serif" font-size="12" lengthAdjust="spacing" textLength="241.6465" x="330.0859" y="454.9272">with modified contribution while looping</text><rect fill="#87CEEB" height="33.9688" rx="12.5" ry="12.5" style="stroke:#181818;stroke-width:0.5;" width="124.2441" x="388.7871" y="501.7261"/><text fill="#000000" font-family="sans-serif" font-size="12" lengthAdjust="spacing" textLength="104.2441" x="398.7871" y="522.8647">Loop the Outputs</text><rect fill="#90EE90" height="47.9375" rx="12.5" ry="12.5" style="stroke:#181818;stroke-width:0.5;" width="261.6465" x="320.0859" y="570.6948"/><text fill="#000000" font-family="sans-serif" font-size="12" lengthAdjust="spacing" textLength="209.0625" x="330.0859" y="591.8335">Update __updateContrbs container</text><text fill="#000000" font-family="sans-serif" font-size="12" lengthAdjust="spacing" textLength="241.6465" x="330.0859" y="605.8022">with modified contribution while looping</text><rect fill="#90EE90" height="47.9375" rx="12.5" ry="12.5" style="stroke:#181818;stroke-width:0.5;" width="197.7383" x="352.04" y="653.6323"/><text fill="#000000" font-family="sans-serif" font-size="12" lengthAdjust="spacing" textLength="176.2559" x="362.04" y="674.771">Calculate the differences btw</text><text fill="#000000" font-family="sans-serif" font-size="12" lengthAdjust="spacing" textLength="177.7383" x="362.04" y="688.7397">current and previous contribs</text><rect fill="#90EE90" height="47.9375" rx="12.5" ry="12.5" style="stroke:#181818;stroke-width:0.5;" width="217.3613" x="342.2285" y="721.5698"/><text fill="#000000" font-family="sans-serif" font-size="12" lengthAdjust="spacing" textLength="197.3613" x="352.2285" y="742.7085">Convert percentages to absolute</text><text fill="#000000" font-family="sans-serif" font-size="12" lengthAdjust="spacing" textLength="78.9785" x="352.2285" y="756.6772">contributions</text><rect fill="#E9FFFC" height="33.9688" rx="12.5" ry="12.5" style="stroke:#181818;stroke-width:0.5;" width="198.541" x="351.6387" y="803.4761"/><text fill="#000000" font-family="sans-serif" font-size="12" lengthAdjust="spacing" textLength="178.541" x="361.6387" y="824.6147">Get Outputs of other columns</text><rect fill="#ADD8E6" height="47.9375" rx="12.5" ry="12.5" style="stroke:#181818;stroke-width:0.5;" width="279.9395" x="310.9395" y="857.4448"/><text fill="#000000" font-family="sans-serif" font-size="12" lengthAdjust="spacing" textLength="191.3262" x="320.9395" y="878.5835">Split the remaining contribution</text><text fill="#000000" font-family="sans-serif" font-size="12" lengthAdjust="spacing" textLength="259.9395" x="320.9395" y="892.5522">evenly between the rest of the Participants</text><rect fill="#90EE90" height="33.9688" rx="12.5" ry="12.5" style="stroke:#181818;stroke-width:0.5;" width="192.3184" x="354.75" y="925.3823"/><text fill="#000000" font-family="sans-serif" font-size="12" lengthAdjust="spacing" textLength="172.3184" x="364.75" y="946.521">Update outputs (HTML span)</text><polygon fill="#F1F1F1" points="739.3625,256.1719,780.8972,256.1719,792.8972,268.1719,780.8972,280.1719,739.3625,280.1719,727.3625,268.1719,739.3625,256.1719" style="stroke:#181818;stroke-width:0.5;"/><text fill="#000000" font-family="sans-serif" font-size="11" lengthAdjust="spacing" textLength="19.0083" x="764.1299" y="290.3823">yes</text><text fill="#000000" font-family="sans-serif" font-size="11" lengthAdjust="spacing" textLength="41.5347" x="739.3625" y="271.98">is Paid?</text><rect fill="#E9FFFC" height="33.9688" rx="12.5" ry="12.5" style="stroke:#181818;stroke-width:0.5;" width="184.6895" x="667.7852" y="311.8823"/><text fill="#000000" font-family="sans-serif" font-size="12" lengthAdjust="spacing" textLength="164.6895" x="677.7852" y="333.021">Get Outputs of that column</text><rect fill="#87CEEB" height="33.9688" rx="12.5" ry="12.5" style="stroke:#181818;stroke-width:0.5;" width="131.4863" x="694.3867" y="365.8511"/><text fill="#000000" font-family="sans-serif" font-size="12" lengthAdjust="spacing" textLength="111.4863" x="704.3867" y="386.9897">Loop the Editables</text><rect fill="#E9FFFC" height="33.9688" rx="12.5" ry="12.5" style="stroke:#181818;stroke-width:0.5;" width="198.541" x="660.8594" y="419.8198"/><text fill="#000000" font-family="sans-serif" font-size="12" lengthAdjust="spacing" textLength="178.541" x="670.8594" y="440.9585">Get Outputs of other columns</text><rect fill="#87CEEB" height="33.9688" rx="12.5" ry="12.5" style="stroke:#181818;stroke-width:0.5;" width="124.2441" x="698.0078" y="487.7573"/><text fill="#000000" font-family="sans-serif" font-size="12" lengthAdjust="spacing" textLength="104.2441" x="708.0078" y="508.896">Loop the Outputs</text><path d="M929.3809,568.1284 L929.3809,576.6948 L909.3809,580.6948 L929.3809,584.6948 L929.3809,593.2612 A0,0 0 0 0 929.3809,593.2612 L1227.0308,593.2612 A0,0 0 0 0 1227.0308,593.2612 L1227.0308,578.1284 L1217.0308,568.1284 L929.3809,568.1284 A0,0 0 0 0 929.3809,568.1284 " fill="#FEFFDD" style="stroke:#181818;stroke-width:0.5;"/><path d="M1217.0308,568.1284 L1217.0308,578.1284 L1227.0308,578.1284 L1217.0308,568.1284 " fill="#FEFFDD" style="stroke:#181818;stroke-width:0.5;"/><text fill="#000000" font-family="sans-serif" font-size="13" lengthAdjust="spacing" textLength="276.6499" x="935.3809" y="585.1953">Here there is no need of calculating a split</text><rect fill="#90EE90" height="47.9375" rx="12.5" ry="12.5" style="stroke:#181818;stroke-width:0.5;" width="298.502" x="610.8789" y="556.7261"/><text fill="#000000" font-family="sans-serif" font-size="12" lengthAdjust="spacing" textLength="244.4531" x="620.8789" y="577.8647">Update Output columns with same array</text><text fill="#000000" font-family="sans-serif" font-size="12" lengthAdjust="spacing" textLength="278.502" x="620.8789" y="591.8335">index with modified contribution while looping</text><rect fill="#90EE90" height="47.9375" rx="12.5" ry="12.5" style="stroke:#181818;stroke-width:0.5;" width="229.9063" x="529.0623" y="999.3511"/><text fill="#000000" font-family="sans-serif" font-size="12" lengthAdjust="spacing" textLength="206.0918" x="542.8767" y="1020.4897">Cleanup all the containers and set</text><text fill="#000000" font-family="sans-serif" font-size="12" lengthAdjust="spacing" textLength="83.0742" x="539.0623" y="1034.4585">to initial state</text><ellipse cx="644.0154" cy="1077.2886" fill="none" rx="10" ry="10" style="stroke:#222222;stroke-width:1.5;"/><line style="stroke:#222222;stroke-width:2.5;" x1="637.8282" x2="650.2026" y1="1071.1014" y2="1083.4758"/><line style="stroke:#222222;stroke-width:2.5;" x1="650.2026" x2="637.8282" y1="1071.1014" y2="1083.4758"/><line style="stroke:#181818;stroke-width:1.0;" x1="644.0154" x2="644.0154" y1="60.2969" y2="80.2969"/><polygon fill="#181818" points="640.0154,70.2969,644.0154,80.2969,648.0154,70.2969,644.0154,74.2969" style="stroke:#181818;stroke-width:1.0;"/><line style="stroke:#181818;stroke-width:1.0;" x1="644.0154" x2="644.0154" y1="114.2656" y2="134.2656"/><polygon fill="#181818" points="640.0154,124.2656,644.0154,134.2656,648.0154,124.2656,644.0154,128.2656" style="stroke:#181818;stroke-width:1.0;"/><line style="stroke:#181818;stroke-width:1.0;" x1="644.0154" x2="644.0154" y1="182.2031" y2="202.2031"/><polygon fill="#181818" points="640.0154,192.2031,644.0154,202.2031,648.0154,192.2031,644.0154,196.2031" style="stroke:#181818;stroke-width:1.0;"/><line style="stroke:#181818;stroke-width:1.0;" x1="160.9697" x2="160.9697" y1="345.8511" y2="365.8511"/><polygon fill="#181818" points="156.9697,355.8511,160.9697,365.8511,164.9697,355.8511,160.9697,359.8511" style="stroke:#181818;stroke-width:1.0;"/><line style="stroke:#181818;stroke-width:1.0;" x1="160.9697" x2="160.9697" y1="399.8198" y2="419.8198"/><polygon fill="#181818" points="156.9697,409.8198,160.9697,419.8198,164.9697,409.8198,160.9697,413.8198" style="stroke:#181818;stroke-width:1.0;"/><line style="stroke:#181818;stroke-width:1.0;" x1="160.9697" x2="160.9697" y1="467.7573" y2="501.7261"/><polygon fill="#181818" points="156.9697,491.7261,160.9697,501.7261,164.9697,491.7261,160.9697,495.7261" style="stroke:#181818;stroke-width:1.0;"/><line style="stroke:#181818;stroke-width:1.0;" x1="160.9697" x2="160.9697" y1="535.6948" y2="570.6948"/><polygon fill="#181818" points="156.9697,560.6948,160.9697,570.6948,164.9697,560.6948,160.9697,564.6948" style="stroke:#181818;stroke-width:1.0;"/><line style="stroke:#181818;stroke-width:1.0;" x1="160.9697" x2="160.9697" y1="618.6323" y2="653.6323"/><polygon fill="#181818" points="156.9697,643.6323,160.9697,653.6323,164.9697,643.6323,160.9697,647.6323" style="stroke:#181818;stroke-width:1.0;"/><line style="stroke:#181818;stroke-width:1.0;" x1="160.9697" x2="160.9697" y1="701.5698" y2="721.5698"/><polygon fill="#181818" points="156.9697,711.5698,160.9697,721.5698,164.9697,711.5698,160.9697,715.5698" style="stroke:#181818;stroke-width:1.0;"/><line style="stroke:#181818;stroke-width:1.0;" x1="160.9697" x2="160.9697" y1="755.5386" y2="789.5073"/><polygon fill="#181818" points="156.9697,779.5073,160.9697,789.5073,164.9697,779.5073,160.9697,783.5073" style="stroke:#181818;stroke-width:1.0;"/><line style="stroke:#181818;stroke-width:1.0;" x1="160.9697" x2="160.9697" y1="837.4448" y2="857.4448"/><polygon fill="#181818" points="156.9697,847.4448,160.9697,857.4448,164.9697,847.4448,160.9697,851.4448" style="stroke:#181818;stroke-width:1.0;"/><line style="stroke:#181818;stroke-width:1.0;" x1="450.9092" x2="450.9092" y1="345.8511" y2="365.8511"/><polygon fill="#181818" points="446.9092,355.8511,450.9092,365.8511,454.9092,355.8511,450.9092,359.8511" style="stroke:#181818;stroke-width:1.0;"/><line style="stroke:#181818;stroke-width:1.0;" x1="450.9092" x2="450.9092" y1="399.8198" y2="419.8198"/><polygon fill="#181818" points="446.9092,409.8198,450.9092,419.8198,454.9092,409.8198,450.9092,413.8198" style="stroke:#181818;stroke-width:1.0;"/><line style="stroke:#181818;stroke-width:1.0;" x1="450.9092" x2="450.9092" y1="467.7573" y2="501.7261"/><polygon fill="#181818" points="446.9092,491.7261,450.9092,501.7261,454.9092,491.7261,450.9092,495.7261" style="stroke:#181818;stroke-width:1.0;"/><line style="stroke:#181818;stroke-width:1.0;" x1="450.9092" x2="450.9092" y1="535.6948" y2="570.6948"/><polygon fill="#181818" points="446.9092,560.6948,450.9092,570.6948,454.9092,560.6948,450.9092,564.6948" style="stroke:#181818;stroke-width:1.0;"/><line style="stroke:#181818;stroke-width:1.0;" x1="450.9092" x2="450.9092" y1="618.6323" y2="653.6323"/><polygon fill="#181818" points="446.9092,643.6323,450.9092,653.6323,454.9092,643.6323,450.9092,647.6323" style="stroke:#181818;stroke-width:1.0;"/><line style="stroke:#181818;stroke-width:1.0;" x1="450.9092" x2="450.9092" y1="701.5698" y2="721.5698"/><polygon fill="#181818" points="446.9092,711.5698,450.9092,721.5698,454.9092,711.5698,450.9092,715.5698" style="stroke:#181818;stroke-width:1.0;"/><line style="stroke:#181818;stroke-width:1.0;" x1="450.9092" x2="450.9092" y1="769.5073" y2="803.4761"/><polygon fill="#181818" points="446.9092,793.4761,450.9092,803.4761,454.9092,793.4761,450.9092,797.4761" style="stroke:#181818;stroke-width:1.0;"/><line style="stroke:#181818;stroke-width:1.0;" x1="450.9092" x2="450.9092" y1="837.4448" y2="857.4448"/><polygon fill="#181818" points="446.9092,847.4448,450.9092,857.4448,454.9092,847.4448,450.9092,851.4448" style="stroke:#181818;stroke-width:1.0;"/><line style="stroke:#181818;stroke-width:1.0;" x1="450.9092" x2="450.9092" y1="905.3823" y2="925.3823"/><polygon fill="#181818" points="446.9092,915.3823,450.9092,925.3823,454.9092,915.3823,450.9092,919.3823" style="stroke:#181818;stroke-width:1.0;"/><line style="stroke:#181818;stroke-width:1.0;" x1="760.1299" x2="760.1299" y1="345.8511" y2="365.8511"/><polygon fill="#181818" points="756.1299,355.8511,760.1299,365.8511,764.1299,355.8511,760.1299,359.8511" style="stroke:#181818;stroke-width:1.0;"/><line style="stroke:#181818;stroke-width:1.0;" x1="760.1299" x2="760.1299" y1="399.8198" y2="419.8198"/><polygon fill="#181818" points="756.1299,409.8198,760.1299,419.8198,764.1299,409.8198,760.1299,413.8198" style="stroke:#181818;stroke-width:1.0;"/><line style="stroke:#181818;stroke-width:1.0;" x1="760.1299" x2="760.1299" y1="453.7886" y2="487.7573"/><polygon fill="#181818" points="756.1299,477.7573,760.1299,487.7573,764.1299,477.7573,760.1299,481.7573" style="stroke:#181818;stroke-width:1.0;"/><line style="stroke:#181818;stroke-width:1.0;" x1="760.1299" x2="760.1299" y1="521.7261" y2="556.7261"/><polygon fill="#181818" points="756.1299,546.7261,760.1299,556.7261,764.1299,546.7261,760.1299,550.7261" style="stroke:#181818;stroke-width:1.0;"/><line style="stroke:#181818;stroke-width:1.0;" x1="160.9697" x2="160.9697" y1="280.1719" y2="311.8823"/><polygon fill="#181818" points="156.9697,301.8823,160.9697,311.8823,164.9697,301.8823,160.9697,305.8823" style="stroke:#181818;stroke-width:1.0;"/><line style="stroke:#181818;stroke-width:1.0;" x1="160.9697" x2="160.9697" y1="891.4136" y2="979.3511"/><polygon fill="#181818" points="156.9697,969.3511,160.9697,979.3511,164.9697,969.3511,160.9697,973.3511" style="stroke:#181818;stroke-width:1.0;"/><line style="stroke:#181818;stroke-width:1.0;" x1="450.9092" x2="450.9092" y1="280.1719" y2="311.8823"/><polygon fill="#181818" points="446.9092,301.8823,450.9092,311.8823,454.9092,301.8823,450.9092,305.8823" style="stroke:#181818;stroke-width:1.0;"/><line style="stroke:#181818;stroke-width:1.0;" x1="450.9092" x2="450.9092" y1="959.3511" y2="979.3511"/><polygon fill="#181818" points="446.9092,969.3511,450.9092,979.3511,454.9092,969.3511,450.9092,973.3511" style="stroke:#181818;stroke-width:1.0;"/><line style="stroke:#181818;stroke-width:1.0;" x1="760.1299" x2="760.1299" y1="280.1719" y2="311.8823"/><polygon fill="#181818" points="756.1299,301.8823,760.1299,311.8823,764.1299,301.8823,760.1299,305.8823" style="stroke:#181818;stroke-width:1.0;"/><line style="stroke:#181818;stroke-width:1.0;" x1="760.1299" x2="760.1299" y1="604.6636" y2="979.3511"/><polygon fill="#181818" points="756.1299,969.3511,760.1299,979.3511,764.1299,969.3511,760.1299,973.3511" style="stroke:#181818;stroke-width:1.0;"/><line style="stroke:#181818;stroke-width:1.0;" x1="212.4822" x2="400.7825" y1="268.1719" y2="268.1719"/><polygon fill="#181818" points="390.7825,264.1719,400.7825,268.1719,390.7825,272.1719,394.7825,268.1719" style="stroke:#181818;stroke-width:1.0;"/><line style="stroke:#181818;stroke-width:1.0;" x1="501.0359" x2="727.3625" y1="268.1719" y2="268.1719"/><polygon fill="#181818" points="717.3625,264.1719,727.3625,268.1719,717.3625,272.1719,721.3625,268.1719" style="stroke:#181818;stroke-width:1.0;"/><line style="stroke:#181818;stroke-width:1.0;" x1="644.0154" x2="644.0154" y1="236.1719" y2="241.1719"/><line style="stroke:#181818;stroke-width:1.0;" x1="644.0154" x2="160.9697" y1="241.1719" y2="241.1719"/><line style="stroke:#181818;stroke-width:1.0;" x1="160.9697" x2="160.9697" y1="241.1719" y2="256.1719"/><polygon fill="#181818" points="156.9697,246.1719,160.9697,256.1719,164.9697,246.1719,160.9697,250.1719" style="stroke:#181818;stroke-width:1.0;"/><line style="stroke:#181818;stroke-width:1.0;" x1="792.8972" x2="1241.0308" y1="268.1719" y2="268.1719"/><line style="stroke:#181818;stroke-width:1.0;" x1="1241.0308" x2="1241.0308" y1="268.1719" y2="979.3511"/><polygon fill="#181818" points="1237.0308,969.3511,1241.0308,979.3511,1245.0308,969.3511,1241.0308,973.3511" style="stroke:#181818;stroke-width:1.0;"/><line style="stroke:#181818;stroke-width:1.0;" x1="160.9697" x2="1241.0308" y1="979.3511" y2="979.3511"/><line style="stroke:#181818;stroke-width:1.0;" x1="644.0154" x2="644.0154" y1="979.3511" y2="999.3511"/><polygon fill="#181818" points="640.0154,989.3511,644.0154,999.3511,648.0154,989.3511,644.0154,993.3511" style="stroke:#181818;stroke-width:1.0;"/><line style="stroke:#181818;stroke-width:1.0;" x1="644.0154" x2="644.0154" y1="1047.2886" y2="1067.2886"/><polygon fill="#181818" points="640.0154,1057.2886,644.0154,1067.2886,648.0154,1057.2886,644.0154,1061.2886" style="stroke:#181818;stroke-width:1.0;"/><!--SRC=[xLN1RXCn4BtxAqRXagxW0qY444I5HYgqekLSURspMQkElHgF4mBYtnbxDsaYKQb8W8H43f7NwtdpvirRJw-9BTlWOL9LRV8chwiAKjzenhVitydUv9loWH78hZfM7wzkpw6gJavKbNebFtNRsGXx692rze0Rz0oXXSdd4ZA1EZ47hvOC51p6V8u3cE0S6WRk4Apl4qUeT-KfHIH5QBGpoGb2sTnebp0dQ4QoPNVR2Q9YNJi4RKoWnlgLsq6DRI2f02CoonPevqg0ObptWJJjG43qdaMWg52WSzqgigYaPailIcbdl-fStLpD5XsQUxZ1780DB89BQmzJNKTP2Q4Npq5e2sExGOYzir9I8EYrRK2lG_8Sp-Rg6RviszRC5cFzow5suGldZIsbnEDQvigsC1NDtjJnfdUSARy-oyL8xXt6imFYUsIuIbpWH7_kT3ai92LhlD_Lek3iCeI-A7589YzTxlIA4FriQ1hStGqgBu9dggFWUDRM8u7QMkvW7HhRMb4Xlo0hBSuEs7PM6k4aXL3_MTAHtXzCUOIxE36G1BT8w8t8M_DMcKIKdPeTrHDkR4Xn3ntdZuaQ18f6LGzbb1flSiDB9iAryCwkEsQgyeTHhCbROJUUZ3oq2k4wVvh6zje_eayOMKmlRZzSYh-q5pUXYpZwunEw__xuU_uu1Wf-WyJG8na9qIiiDzpXOb37ZFv9RrtB7VQxJVKq4Nx98iExVJGKMqIzbjb0f7UWh6_m2ppTBKTZy4AyaVFBl-ZX0tYKO26y7rDboWpN_iCeaOLjJvZ2mg7sgJzCf8EDX-4c0qk9T-mmV41c4UCyuwZlFm00]--></g></svg>